<?xml version="1.0" standalone="no"?>
<!DOCTYPE svg PUBLIC "-//W3C//DTD SVG 1.1//EN" "http://www.w3.org/Graphics/SVG/1.1/DTD/svg11.dtd" >
<svg xmlns="http://www.w3.org/2000/svg">
<metadata>
Created by FontPrep 20130207 at Thu Mar 13 11:52:19 2014
 By Thomas Lichtblau
Copyright (c) 2009 by Reto Moser &#38; Tobias Rechsteiner (Grotesk.cc) and Grilli Type. All rights reserved.
</metadata>
<defs>
<font id="41e0fc1b453f79d353b5500f0d23cdf3" horiz-adv-x='1024' >
  <font-face 
    font-family="GTHaptikWILD-Normal"
    font-weight="400"
    font-stretch="normal"
    units-per-em="2048"
    panose-1="0 0 5 0 0 0 0 0 0 0"
    ascent="1638"
    descent="-410"
    x-height="1024"
    cap-height="1434"
    bbox="-451 -614 2679 2441"
    underline-thickness="102"
    underline-position="-102"
    unicode-range="U+0020-FB04"
  />
<missing-glyph horiz-adv-x="1812" 
d="M1455 518q40 0 40 -40t-40 -40t-40 40t40 40zM1196 547v-96q12 8 40 19t30 24q0 30 -70 53zM705 760v-66q10 6 27 12t28 9q10 4 10 12q1 23 -65 33zM1485 770v-205h-60v205h60zM1655 754q0 59 -44 82q-89 46 -288 -2v-342q0 -39 -63 -65t-64 -50q0 -33 41 -33t122 22
t145 22t151 -32v398zM1023 748q46 0 77 30t30 76q0 45 -30 75q-31 29 -77 29t-76 -30q-29 -30 -29 -74q0 -45 29 -76q30 -30 76 -30zM1024 1018q72 0 118 -46t46 -118t-46 -119t-118 -47t-118 47t-46 119t46 118t118 46zM831 729q1 -37 -65 -59t-66 -47q0 -33 46 -33t144 17
t150 18q133 0 226 -52v404q0 92 -99 115q-51 12 -130 12t-206 -25v-350zM547 860h-62v139l-133 195h70l94 -131l92 131h70l-131 -195v-139zM596 823q112 0 176 -28v393q0 57 -46 85t-108 27q-133 0 -360 -92v-471q226 86 338 86zM1323 991v-98q98 25 158 25q229 0 229 -162
v-492q-106 66 -229 66q-39 0 -119 -20t-123 -21q-98 0 -98 94v176q-47 10 -97 10t-148 -18q-96 -19 -146 -19t-76 26t-27 69v139h-29q-127 0 -360 -90v-676h-80v1323q-35 23 -35 62t22 59q21 20 53 20t54 -22t23 -60q0 -40 -37 -61v-49q211 86 360 86q86 0 150 -44t63 -126
v-51q113 25 209 24q283 0 283 -170z" />
    <glyph glyph-name=".notdef" horiz-adv-x="1812" 
d="M1455 518q40 0 40 -40t-40 -40t-40 40t40 40zM1196 547v-96q12 8 40 19t30 24q0 30 -70 53zM705 760v-66q10 6 27 12t28 9q10 4 10 12q1 23 -65 33zM1485 770v-205h-60v205h60zM1655 754q0 59 -44 82q-89 46 -288 -2v-342q0 -39 -63 -65t-64 -50q0 -33 41 -33t122 22
t145 22t151 -32v398zM1023 748q46 0 77 30t30 76q0 45 -30 75q-31 29 -77 29t-76 -30q-29 -30 -29 -74q0 -45 29 -76q30 -30 76 -30zM1024 1018q72 0 118 -46t46 -118t-46 -119t-118 -47t-118 47t-46 119t46 118t118 46zM831 729q1 -37 -65 -59t-66 -47q0 -33 46 -33t144 17
t150 18q133 0 226 -52v404q0 92 -99 115q-51 12 -130 12t-206 -25v-350zM547 860h-62v139l-133 195h70l94 -131l92 131h70l-131 -195v-139zM596 823q112 0 176 -28v393q0 57 -46 85t-108 27q-133 0 -360 -92v-471q226 86 338 86zM1323 991v-98q98 25 158 25q229 0 229 -162
v-492q-106 66 -229 66q-39 0 -119 -20t-123 -21q-98 0 -98 94v176q-47 10 -97 10t-148 -18q-96 -19 -146 -19t-76 26t-27 69v139h-29q-127 0 -360 -90v-676h-80v1323q-35 23 -35 62t22 59q21 20 53 20t54 -22t23 -60q0 -40 -37 -61v-49q211 86 360 86q86 0 150 -44t63 -126
v-51q113 25 209 24q283 0 283 -170z" />
    <glyph glyph-name=".null" horiz-adv-x="0" 
 />
    <glyph glyph-name=".null" horiz-adv-x="0" 
 />
    <glyph glyph-name="nonmarkingreturn" horiz-adv-x="681" 
 />
    <glyph glyph-name="space" unicode=" " horiz-adv-x="593" 
 />
    <glyph glyph-name="exclam" unicode="!" horiz-adv-x="647" 
d="M184 139q0 61 39 101t101 39q62 0 100 -39q39 -38 39 -100t-39 -101t-100 -39t-101 39q-39 39 -39 100zM231 410v1024h185v-1024h-185z" />
    <glyph glyph-name="quotedbl" unicode="&#x22;" horiz-adv-x="727" 
d="M434 911v523h150v-523h-150zM143 911v523h150v-523h-150z" />
    <glyph glyph-name="numbersign" unicode="#" horiz-adv-x="1165" 
d="M731 864h-258l-41 -295h260zM811 436l-59 -436h-140l62 436h-262l-60 -436h-139l61 436h-213l17 133h215l41 295h-215l18 133h215l60 437h141l-61 -437h260l59 437h141l-61 -437h213l-17 -133h-215l-43 -295h215l-18 -133h-215z" />
    <glyph glyph-name="dollar" unicode="$" horiz-adv-x="1185" 
d="M649 610v-420q84 16 137 70t54 133q-1 147 -191 217zM344 1038q0 -130 170 -196v397q-82 -23 -126 -78t-44 -123zM514 -164v168q-127 16 -227 100t-144 238l162 86q51 -195 209 -235v454q-354 113 -354 391q0 154 101 257t253 130v172h135v-167q135 -16 243 -108
t150 -235l-174 -71q-25 96 -85 154t-134 73v-440q167 -49 271 -151t104 -262q0 -161 -109 -263t-266 -123v-168h-135z" />
    <glyph glyph-name="percent" unicode="%" horiz-adv-x="1685" 
d="M1085 330q-1 -82 57 -140t140 -57q82 0 139 57q57 58 57 140t-56 139q-58 57 -140 57t-140 -57t-57 -139zM952 330q0 137 96 234q96 98 234 98q136 0 234 -98t98 -234q0 -138 -97 -234t-235 -96t-234 96t-96 234zM600 1102q0 82 -57 139t-139 57t-140 -57
q-57 -57 -57 -139t57 -139t139 -57q81 0 139 56q58 58 58 140zM346 0l-102 84l1071 1350l102 -82zM733 1102q0 -138 -96 -234q-95 -96 -233 -96t-235 96t-97 234t97 234q97 98 234 98t233 -98t97 -234z" />
    <glyph glyph-name="ampersand" unicode="&#x26;" horiz-adv-x="1415" 
d="M338 385q0 -88 70 -162t180 -73q190 0 299 143l-334 381q-104 -70 -160 -135q-55 -66 -55 -154zM748 1137q0 67 -43 107t-105 40t-104 -42q-44 -42 -44 -114t78 -157l58 -68q160 113 160 234zM268 1136q0 138 91 230t239 92t242 -93q92 -93 92 -217t-60 -209t-170 -163
l271 -307q20 60 43 199l168 -33q-27 -172 -82 -309l178 -201l-139 -123l-137 156q-152 -182 -416 -183q-199 0 -317 121q-117 122 -117 278t74 251q75 94 208 182l-49 57q-119 134 -119 272z" />
    <glyph glyph-name="quotesingle" unicode="'" horiz-adv-x="436" 
d="M143 911v523h150v-523h-150z" />
    <glyph glyph-name="parenleft" unicode="(" horiz-adv-x="659" 
d="M82 642q0 280 101 533t288 443l117 -107q-168 -188 -251 -396t-83 -473t83 -474t251 -397l-117 -107q-185 190 -287 444t-102 534z" />
    <glyph glyph-name="parenright" unicode=")" horiz-adv-x="659" 
d="M406 642q0 265 -83 473t-251 396l116 107q186 -190 288 -443t102 -534t-102 -533t-288 -444l-116 107q168 188 251 397t83 474z" />
    <glyph glyph-name="asterisk" unicode="*" horiz-adv-x="690" 
d="M279 1434h131v-248l235 78l45 -127l-239 -76l145 -199l-102 -80l-150 201l-147 -201l-105 80l146 199l-238 76l45 127l234 -78v248z" />
    <glyph glyph-name="plus" unicode="+" 
d="M197 559v184h428v428h184v-428h428v-184h-428v-428h-184v428h-428z" />
    <glyph glyph-name="comma" unicode="," horiz-adv-x="628" 
d="M41 -387l381 694l145 -82l-383 -690z" />
    <glyph glyph-name="hyphen" unicode="-" horiz-adv-x="1286" 
d="M164 541v184h958v-184h-958z" />
    <glyph glyph-name="period" unicode="." horiz-adv-x="731" 
d="M205 160q0 68 46 114t114 48q69 0 115 -48t46 -114q0 -68 -47 -114t-115 -46t-113 46q-46 46 -46 114z" />
    <glyph glyph-name="slash" unicode="/" horiz-adv-x="1501" 
d="M266 0l-143 115l1112 1319l143 -113z" />
    <glyph glyph-name="zero" unicode="0" horiz-adv-x="1593" 
d="M797 184q207 0 348 152t141 375t-141 375t-348 153q-207 0 -348 -153q-141 -154 -141 -376t140 -374q142 -152 349 -152zM797 1423q283 -1 479 -205t194 -507q0 -303 -196 -507t-478 -204t-478 204t-195 507q0 303 195 508q196 204 479 204z" />
    <glyph glyph-name="one" unicode="1" horiz-adv-x="937" 
d="M733 1434v-1434h-184v1161l-340 -340l-127 131l481 482h170z" />
    <glyph glyph-name="two" unicode="2" horiz-adv-x="1259" 
d="M620 1434q172 0 304 -127t131 -324q0 -197 -140 -340l-446 -459h586v-184h-862v162l593 610q84 88 84 208t-75 195q-77 75 -183 75t-190 -74q-84 -72 -129 -189l-150 129q70 138 187 228q118 90 290 90z" />
    <glyph glyph-name="three" unicode="3" horiz-adv-x="1153" 
d="M506 811h86q90 4 151 63q61 60 61 156t-66 158t-162 61q-96 0 -172 -73q-75 -74 -101 -189l-158 127q43 137 159 228q116 92 280 92t284 -115q121 -115 121 -303t-151 -297q152 -106 152 -303q0 -196 -119 -306q-117 -110 -285 -110t-285 92t-158 240l160 123
q23 -123 97 -197t174 -74q102 0 166 60t65 162q1 100 -61 158t-152 63h-86v184z" />
    <glyph glyph-name="four" unicode="4" horiz-adv-x="1413" 
d="M852 475v635l-533 -635h533zM1036 475h295v-184h-295v-291h-184v291h-791v170l822 973h153v-959z" />
    <glyph glyph-name="five" unicode="5" horiz-adv-x="1200" 
d="M225 1434h811v-185h-626v-311q68 18 149 18q215 0 346 -133t131 -352t-144 -345t-364 -126t-385 143l95 164q143 -123 309 -123q131 0 217 77t86 217t-82 217t-228 77t-315 -84v746z" />
    <glyph glyph-name="six" unicode="6" horiz-adv-x="1210" 
d="M334 466q0 -130 83 -206t206 -76t201 81t79 209q0 128 -77 205q-76 77 -204 77t-208 -80t-80 -210zM673 1249q-128 -1 -222 -115t-95 -278q111 84 269 84q201 0 331 -129t131 -336q0 -207 -133 -341t-336 -134q-125 0 -223 53t-155 142q-96 145 -97 432q1 391 145 599
t402 208q181 0 316 -111l-101 -152q-104 78 -232 78z" />
    <glyph glyph-name="seven" unicode="7" horiz-adv-x="1112" 
d="M1030 1434v-177l-649 -1257h-207l643 1249h-735v185h948z" />
    <glyph glyph-name="eight" unicode="8" horiz-adv-x="1138" 
d="M570 625q-99 -1 -171 -61q-71 -60 -71 -160t68 -160t176 -60t174 60t65 159q0 100 -71 161t-170 61zM570 809q99 0 170 60q71 61 71 161t-66 160q-67 60 -175 59q-108 0 -176 -59q-68 -60 -66 -160q0 -100 71 -161q72 -60 171 -60zM995 408q-1 -188 -119 -298t-306 -110
t-308 110q-119 110 -119 302q0 194 162 305q-162 111 -162 304t119 303t307 110q187 0 307 -110t120 -298t-171 -309q170 -121 170 -309z" />
    <glyph glyph-name="nine" unicode="9" horiz-adv-x="1200" 
d="M877 968q0 130 -83 206t-206 76t-202 -82q-79 -81 -79 -209q0 -129 77 -205t205 -76t208 80t80 210zM537 184q141 0 229 108t88 286q-111 -84 -268 -84q-201 0 -332 129t-131 335t133 341q133 134 336 135q250 0 379 -195q96 -145 96 -438q0 -408 -139 -613
q-129 -188 -406 -188q-178 0 -332 88l78 168q129 -72 269 -72z" />
    <glyph glyph-name="colon" unicode=":" horiz-adv-x="649" 
d="M164 160q0 68 46 114t114 48q68 0 114 -48t47 -114q0 -68 -47 -114q-46 -46 -114 -46t-114 46t-46 114zM164 889q0 68 46 115t114 47t114 -47t47 -115q0 -68 -47 -114q-46 -46 -114 -46t-114 46t-46 114z" />
    <glyph glyph-name="semicolon" unicode=";" horiz-adv-x="815" 
d="M61 -387l381 694l146 -82l-383 -690zM330 889q0 68 46 115t114 47t114 -47q47 -47 47 -115t-47 -114t-115 -46q-67 0 -113 46t-46 114z" />
    <glyph glyph-name="less" unicode="&#x3c;" 
d="M1198 258l-76 -162l-889 396v163l889 396l76 -162l-715 -316z" />
    <glyph glyph-name="equal" unicode="=" 
d="M1214 467v-184h-995v184h995zM1214 907v-184h-995v184h995z" />
    <glyph glyph-name="greater" unicode="&#x3e;" 
d="M309 96l-76 162l715 315l-715 316l76 162l889 -396v-163z" />
    <glyph glyph-name="question" unicode="?" horiz-adv-x="1128" 
d="M410 139q0 61 39 101t100 39q61 0 100 -39q39 -38 39 -100t-39 -101t-100 -39t-100 39t-39 100zM457 403v52q0 207 200 368q123 97 123 199t-60 164t-176 63q-116 0 -189 -80t-72 -211h-181q0 205 122 340q122 136 318 136t309 -108q114 -108 114 -296t-199 -354
q-125 -104 -125 -221v-52h-184z" />
    <glyph glyph-name="at" unicode="@" horiz-adv-x="1943" 
d="M811 448q0 -44 36 -77q35 -33 119 -33t148 62q63 62 64 143v49l-260 -29q-51 -6 -79 -38q-28 -33 -28 -77zM985 -223q-356 0 -589 239q-232 240 -232 604t239 601q240 237 596 237q357 0 579 -201t222 -530q0 -252 -92 -394q-92 -143 -267 -143t-222 142
q-96 -145 -281 -146q-135 0 -216 75t-81 192t77 185t183 77l242 18q35 2 35 37v29q0 39 -44 73t-120 35q-76 0 -135 -38t-72 -111l-145 69q59 231 344 232q170 0 252 -86t83 -236v-268q0 -63 28 -97t77 -34q182 0 182 385q0 254 -173 413q-173 158 -457 158t-473 -190
t-189 -484t182 -487t454 -193t480 95l33 -160q-236 -98 -500 -98z" />
    <glyph glyph-name="A" unicode="A" horiz-adv-x="1568" 
d="M784 1210l-358 -774h717zM1548 0h-202l-115 252h-893l-115 -252h-203l668 1434h193z" />
    <glyph glyph-name="B" unicode="B" horiz-adv-x="1243" 
d="M348 625v-441h416q94 0 154 60t59 155q0 96 -57 161t-146 65h-426zM348 1249v-440h426q88 0 146 64q57 65 57 161t-59 156t-154 59h-416zM164 0v1434h600q168 0 283 -112t114 -288q0 -100 -47 -185t-127 -132q80 -49 127 -132t47 -186q-1 -175 -115 -287t-282 -112h-600z
" />
    <glyph glyph-name="C" unicode="C" horiz-adv-x="1382" 
d="M279 717q0 -236 148 -384q147 -149 373 -149t396 164l64 -188q-203 -160 -453 -160q-301 0 -507 206t-206 511t206 511t499 206t512 -205l-84 -174q-179 195 -415 195t-384 -149q-148 -148 -149 -384z" />
    <glyph glyph-name="D" unicode="D" horiz-adv-x="1472" 
d="M655 1249h-307v-1065h307q231 0 381 150t150 383t-150 383t-381 149zM164 0v1434h491q305 0 510 -204t205 -513t-205 -513t-510 -204h-491z" />
    <glyph glyph-name="E" unicode="E" horiz-adv-x="1157" 
d="M164 0v1434h880v-185h-696v-440h696v-184h-696v-441h696v-184h-880z" />
    <glyph glyph-name="F" unicode="F" horiz-adv-x="1126" 
d="M1044 1249h-696v-440h696v-184h-696v-625h-184v1434h880v-185z" />
    <glyph glyph-name="G" unicode="G" horiz-adv-x="1411" 
d="M287 702q0 -240 147 -392q147 -151 375 -150q184 0 287 98v289h-330v184h514v-561q-158 -195 -463 -195t-510 209q-205 208 -205 518t206 521t499 211t512 -205l-84 -174q-179 195 -415 195t-385 -154q-148 -154 -148 -394z" />
    <glyph glyph-name="H" unicode="H" horiz-adv-x="1454" 
d="M1352 0h-185v625h-819v-625h-184v1434h184v-625h819v625h185v-1434z" />
    <glyph glyph-name="I" unicode="I" horiz-adv-x="512" 
d="M348 0h-184v1434h184v-1434z" />
    <glyph glyph-name="J" unicode="J" horiz-adv-x="1007" 
d="M441 184q116 0 177 77t62 192v981h184v-981q0 -203 -112 -328t-301 -125q-107 0 -191 39q-147 68 -205 234q-24 71 -24 145l170 84q0 -142 62 -230t178 -88z" />
    <glyph glyph-name="K" unicode="K" horiz-adv-x="1325" 
d="M348 0h-184v1434h184v-715l707 715h260l-619 -625l619 -809h-234l-516 676l-217 -219v-457z" />
    <glyph glyph-name="L" unicode="L" horiz-adv-x="1089" 
d="M164 0v1434h184v-1250h711v-184h-895z" />
    <glyph glyph-name="M" unicode="M" horiz-adv-x="2070" 
d="M348 0h-184v1434h190l682 -1196l680 1196h191v-1434h-185v1065l-606 -1065h-162l-606 1065v-1065z" />
    <glyph glyph-name="N" unicode="N" horiz-adv-x="1611" 
d="M1448 0h-176l-924 1120v-1120h-184v1434h170l930 -1129v1129h184v-1434z" />
    <glyph glyph-name="O" unicode="O" horiz-adv-x="1634" 
d="M817 184q229 0 380 152t151 381t-151 381t-380 152t-380 -152t-151 -381t152 -381q150 -152 379 -152zM818 1434q306 0 510 -205t204 -512t-204 -512t-510 -205t-511 205t-205 512t205 512t511 205z" />
    <glyph glyph-name="P" unicode="P" horiz-adv-x="1218" 
d="M348 651h326q125 0 212 85t87 214t-87 214t-212 85h-326v-598zM674 467h-326v-467h-184v1434h510q209 0 346 -138t137 -346q0 -209 -137 -346t-346 -137z" />
    <glyph glyph-name="Q" unicode="Q" horiz-adv-x="1710" 
d="M817 184q170 0 305 90l-256 238l129 129l256 -238q98 137 99 314q0 229 -152 381t-381 152t-380 -152t-151 -381t152 -381q150 -152 379 -152zM817 0q-305 0 -510 205t-205 512t205 512t511 205t511 -205t205 -512q0 -262 -150 -449l367 -364l-129 -129l-367 366
q-184 -141 -438 -141z" />
    <glyph glyph-name="R" unicode="R" horiz-adv-x="1357" 
d="M348 651h309q117 0 164 19q86 33 140 108q53 76 53 188t-87 198q-87 85 -212 85h-367v-598zM348 467v-467h-184v1434h551q209 0 346 -138t137 -346q0 -143 -69 -257t-185 -173l342 -520h-239l-299 467h-400z" />
    <glyph glyph-name="S" unicode="S" horiz-adv-x="1134" 
d="M575 1249q-101 0 -171 -62t-70 -153q0 -119 130 -175q66 -28 150 -52q182 -53 291 -147t109 -272q0 -176 -130 -282t-294 -106t-286 83t-171 259l162 86q68 -244 283 -244q106 0 179 58t73 142q0 83 -47 134q-46 52 -93 72t-115 40q-67 20 -107 32q-40 14 -109 49
t-109 73t-70 105q-31 66 -30 145q0 178 129 289t296 111t289 -94t168 -253l-174 -71q-33 117 -107 175q-75 58 -176 58z" />
    <glyph glyph-name="T" unicode="T" horiz-adv-x="1333" 
d="M1323 1434v-185h-565v-1249h-185v1249h-563v185h1313z" />
    <glyph glyph-name="U" unicode="U" horiz-adv-x="1597" 
d="M143 655v779h185v-779q0 -201 135 -336t336 -135t336 135t135 336v779h184v-779q0 -279 -188 -467t-467 -188t-467 188t-189 467z" />
    <glyph glyph-name="V" unicode="V" horiz-adv-x="1523" 
d="M831 0h-139l-682 1434h205l549 -1155l545 1155h204z" />
    <glyph glyph-name="W" unicode="W" horiz-adv-x="2498" 
d="M1161 1434h176l498 -1119l444 1119h199l-569 -1434h-135l-525 1176l-524 -1176h-135l-570 1434h199l445 -1119z" />
    <glyph glyph-name="X" unicode="X" horiz-adv-x="1458" 
d="M1427 1434l-579 -719l579 -715h-237l-461 567l-461 -567h-237l579 715l-579 719h235l463 -572l463 572h235z" />
    <glyph glyph-name="Y" unicode="Y" horiz-adv-x="1355" 
d="M770 0h-184v604l-576 830h226l442 -639l442 639h226l-576 -830v-604z" />
    <glyph glyph-name="Z" unicode="Z" horiz-adv-x="1355" 
d="M1253 184v-184h-1151v141l877 1108h-877v185h1151v-142l-876 -1108h876z" />
    <glyph glyph-name="bracketleft" unicode="[" horiz-adv-x="696" 
d="M225 -274v1833h410v-144h-256v-1546h256v-143h-410z" />
    <glyph glyph-name="backslash" unicode="\" horiz-adv-x="1378" 
d="M1317 115l-143 -115l-1113 1321l144 113z" />
    <glyph glyph-name="bracketright" unicode="]" horiz-adv-x="696" 
d="M471 1559v-1833h-410v143h256v1546h-256v144h410z" />
    <glyph glyph-name="asciicircum" unicode="^" horiz-adv-x="698" 
d="M20 1282l330 311l328 -311l-109 -111l-219 213l-221 -213z" />
    <glyph glyph-name="underscore" unicode="_" horiz-adv-x="1224" 
d="M61 -121v141h1102v-141h-1102z" />
    <glyph glyph-name="grave" unicode="`" horiz-adv-x="557" 
d="M102 1593l435 -280l-80 -123l-437 272z" />
    <glyph glyph-name="a" unicode="a" horiz-adv-x="1085" 
d="M272 293q0 -68 50 -108t162 -40t202 84t90 185v75l-342 -40q-162 -20 -162 -156zM776 717v22q0 68 -60 110t-163 42q-231 0 -264 -186l-160 86q66 258 408 258q209 -1 312 -101t103 -282v-666h-176v145q-49 -77 -137 -121t-193 -44q-166 0 -260 88t-94 227t88 222t223 95
l297 29q36 1 56 23t20 53z" />
    <glyph glyph-name="b" unicode="b" horiz-adv-x="1234" 
d="M307 512q0 -170 90 -272t247 -101t252 105t95 268t-95 268t-252 104t-247 -100q-90 -102 -90 -272zM319 1434v-549q133 164 353 164q220 1 361 -147t141 -390t-140 -389t-362 -147q-223 0 -353 171v-147h-176v1434h176z" />
    <glyph glyph-name="c" unicode="c" horiz-adv-x="1011" 
d="M588 -25q-223 0 -375 154t-152 383t152 383t375 154t364 -152l-110 -139q-100 121 -250 121q-150 -1 -248 -103q-100 -102 -100 -265t99 -264t249 -101t260 126l109 -141q-150 -156 -373 -156z" />
    <glyph glyph-name="d" unicode="d" horiz-adv-x="1234" 
d="M244 512q0 -164 95 -268t252 -105t247 101t90 272t-90 271t-247 101t-252 -104t-95 -268zM915 0v147q-53 -79 -146 -125t-212 -47q-215 -1 -355 147t-140 391t140 389t370 146t343 -163v549h177v-1434h-177z" />
    <glyph glyph-name="e" unicode="e" horiz-adv-x="1110" 
d="M569 885q-125 0 -211 -78t-108 -207h616q-16 129 -94 207t-203 78zM562 1049q224 0 360 -153t137 -384v-53h-821q8 -152 103 -236t234 -84q191 0 326 158l90 -135q-166 -186 -402 -186q-235 0 -381 146q-146 148 -146 380t138 389q138 158 362 158z" />
    <glyph glyph-name="f" unicode="f" horiz-adv-x="737" 
d="M31 870v154h188v57q0 371 330 371q66 0 158 -14v-160q-72 10 -150 10t-120 -45t-42 -162v-57h297v-154h-297v-870h-176v870h-188z" />
    <glyph glyph-name="g" unicode="g" horiz-adv-x="1255" 
d="M948 512q0 170 -90 272t-247 101t-252 -105t-95 -268t95 -268t252 -104t247 100q90 102 90 272zM942 55v84q-51 -74 -145 -119t-213 -45q-222 1 -362 147t-140 389t140 390t360 148q121 -1 214 -47t140 -117v139h176v-969q0 -492 -494 -491q-334 0 -464 252l137 108
q102 -205 342 -205q309 0 309 336z" />
    <glyph glyph-name="h" unicode="h" horiz-adv-x="1161" 
d="M858 610q0 275 -240 275q-162 0 -239 -121q-59 -94 -60 -287v-477h-176v1434h176v-545q115 160 319 160t302 -119t98 -328v-602h-180v610z" />
    <glyph glyph-name="i" unicode="i" horiz-adv-x="524" 
d="M174 0v1024h176v-1024h-176zM123 1321q0 59 41 99t98 40t98 -40t41 -99t-41 -99t-98 -40t-98 40t-41 99z" />
    <glyph glyph-name="j" unicode="j" horiz-adv-x="542" 
d="M-41 -418v172q141 0 193 48q51 48 51 149v1073h176v-1073q1 -193 -95 -281t-325 -88zM152 1321q0 59 41 99t98 40t98 -40t41 -99t-41 -99t-98 -40t-98 40t-41 99z" />
    <glyph glyph-name="k" unicode="k" horiz-adv-x="1054" 
d="M319 0h-176v1434h176v-891l467 481h248l-434 -453l434 -571h-229l-330 455l-156 -148v-307z" />
    <glyph glyph-name="l" unicode="l" horiz-adv-x="466" 
d="M324 0h-181v1434h181v-1434z" />
    <glyph glyph-name="m" unicode="m" horiz-adv-x="1896" 
d="M1575 0v612q0 272 -246 273q-158 0 -233 -121q-59 -94 -60 -287v-477h-178v612q0 272 -244 273q-160 0 -235 -121q-59 -94 -60 -287v-477h-176v1024h170v-143q47 80 132 124t188 44q250 0 342 -203q133 203 375 203q403 0 403 -459v-590h-178z" />
    <glyph glyph-name="n" unicode="n" horiz-adv-x="1181" 
d="M858 0v610q0 133 -60 204t-177 71q-166 0 -242 -121q-59 -94 -60 -287v-477h-176v1024h170v-135q115 160 323 160t305 -120t97 -327v-602h-180z" />
    <glyph glyph-name="o" unicode="o" horiz-adv-x="1196" 
d="M598 145q152 -1 253 105t101 262t-101 261t-253 105t-253 -104q-101 -106 -101 -262t101 -262t253 -105zM598 1049q223 0 380 -157t157 -380t-157 -380t-380 -157t-380 157t-157 380t157 380t380 157z" />
    <glyph glyph-name="p" unicode="p" horiz-adv-x="1234" 
d="M991 512q0 164 -95 268t-252 105t-247 -101t-90 -272t90 -271t247 -101t252 104t95 268zM319 -410h-176v1434h176v-139q133 164 353 164q220 1 361 -147t141 -390t-140 -389t-362 -147q-223 0 -353 171v-557z" />
    <glyph glyph-name="q" unicode="q" horiz-adv-x="1234" 
d="M928 512q0 170 -90 272t-247 101t-252 -105t-95 -268t95 -268t252 -104t247 100q90 102 90 272zM1092 -410h-177v557q-49 -75 -141 -123t-217 -49q-215 -1 -355 147t-140 391t140 389t370 146t343 -163v139h177v-1434z" />
    <glyph glyph-name="r" unicode="r" horiz-adv-x="765" 
d="M723 1040v-184q-43 10 -102 10q-162 0 -232 -99t-70 -290v-477h-176v1024h170v-154q100 180 310 181q74 0 96 -11h4z" />
    <glyph glyph-name="s" unicode="s" horiz-adv-x="956" 
d="M485 139q96 0 160 40q63 40 63 108t-76 101q-58 25 -140 42q-234 50 -318 120q-35 30 -59 78q-25 48 -25 107q0 135 109 224t288 90q279 0 398 -222l-146 -92q-76 150 -260 150q-96 0 -154 -42q-59 -43 -59 -103t56 -87t212 -63t252 -101t96 -203t-112 -224
q-114 -86 -270 -87q-319 0 -428 240l145 92q74 -168 268 -168z" />
    <glyph glyph-name="t" unicode="t" horiz-adv-x="772" 
d="M233 287v583h-202v154h202v291h177v-291h280v-154h-280v-594q0 -125 116 -124q63 0 174 12v-154q-98 -20 -184 -20q-143 0 -213 68t-70 229z" />
    <glyph glyph-name="u" unicode="u" horiz-adv-x="1167" 
d="M324 1024v-606q0 -133 50 -206t175 -73q166 0 239 121q59 94 60 287v477h176v-1024h-170v147q-121 -172 -336 -172q-375 0 -375 443v606h181z" />
    <glyph glyph-name="v" unicode="v" horiz-adv-x="1081" 
d="M868 1024h193l-451 -1024h-139l-451 1024h193l328 -793z" />
    <glyph glyph-name="w" unicode="w" horiz-adv-x="1773" 
d="M823 1024h125l316 -760l299 760h190l-422 -1024h-135l-309 735l-312 -735h-135l-420 1024h191l297 -760z" />
    <glyph glyph-name="x" unicode="x" horiz-adv-x="1064" 
d="M639 512l405 -512h-217l-295 381l-294 -381h-218l406 512l-406 512h218l294 -381l295 381h217z" />
    <glyph glyph-name="y" unicode="y" horiz-adv-x="1075" 
d="M20 1024h213l326 -680l320 680h186l-662 -1434h-190l252 549z" />
    <glyph glyph-name="z" unicode="z" horiz-adv-x="929" 
d="M868 164v-164h-807v158l570 702h-553v164h770v-158l-569 -702h589z" />
    <glyph glyph-name="braceleft" unicode="{" horiz-adv-x="774" 
d="M498 403v-368q0 -80 48 -123t122 -43h65v-143h-55q-334 0 -334 319v338q0 84 -59 132t-162 54v152q102 6 162 56q59 50 59 134v328q0 319 334 320h55v-144h-65q-74 0 -122 -43t-48 -123v-342q0 -188 -164 -252v-4q88 -35 126 -95t38 -153z" />
    <glyph glyph-name="bar" unicode="|" horiz-adv-x="563" 
d="M205 -274v1833h153v-1833h-153z" />
    <glyph glyph-name="braceright" unicode="}" horiz-adv-x="774" 
d="M276 35v368q0 93 38 153t126 95v4q-164 63 -164 252v342q0 80 -48 123t-122 43h-65v144h55q334 0 334 -320v-328q0 -84 59 -134t162 -56v-152q-101 -6 -161 -54t-60 -132v-338q0 -319 -334 -319h-55v143h65q74 0 122 43t48 123z" />
    <glyph glyph-name="asciitilde" unicode="~" horiz-adv-x="1398" 
d="M924 471q-96 0 -238 71t-211 70q-102 0 -225 -118l-96 135q170 166 321 166q97 0 239 -71t210 -71q102 0 225 119l96 -127q-178 -174 -321 -174z" />
    <glyph glyph-name="exclamdown" unicode="&#xa1;" horiz-adv-x="647" 
d="M416 637v-1047h-185v1047h185zM463 911q0 -61 -39 -100t-100 -39t-101 39q-39 39 -39 100t39 101t101 39q62 1 100 -39q39 -40 39 -101z" />
    <glyph glyph-name="cent" unicode="&#xa2;" horiz-adv-x="1062" 
d="M535 158v708q-113 -31 -182 -126t-69 -229t70 -228t181 -125zM535 -199v183q-190 33 -312 179q-121 146 -121 349t121 348t312 180v187h133v-180q195 -12 325 -150l-110 -139q-88 104 -215 119v-730q131 14 225 125l108 -141q-135 -141 -333 -154v-176h-133z" />
    <glyph glyph-name="sterling" unicode="&#xa3;" horiz-adv-x="1275" 
d="M811 0h-668v168q180 18 181 211v276h-201v154h201v242q0 182 100 296t293 113q133 0 226 -66t136 -163l-155 -111q-25 74 -81 120t-140 46q-83 0 -139 -60t-56 -175v-242h399v-154h-399v-276q0 -150 -96 -199v-6h399q203 0 309 176l94 -164q-139 -186 -403 -186z" />
    <glyph glyph-name="currency" unicode="&#xa4;" horiz-adv-x="1114" 
d="M301 718q0 -105 76 -180t180 -75t180 75t76 180t-76 180t-180 75t-180 -75t-76 -180zM127 718q0 142 84 255l-156 153l97 91l151 -154q113 84 254 84t254 -84l152 154l94 -91l-156 -153q86 -117 86 -257t-84 -251l170 -172l-90 -90l-172 168q-115 -82 -254 -82t-254 82
l-172 -168l-90 90l170 170q-84 113 -84 255z" />
    <glyph glyph-name="yen" unicode="&#xa5;" horiz-adv-x="1376" 
d="M1165 463v-144h-385v-319h-184v319h-385v144h385v141h-385v144h289l-459 686h225l422 -646l422 646h225l-458 -686h288v-144h-385v-141h385z" />
    <glyph glyph-name="brokenbar" unicode="&#xa6;" horiz-adv-x="563" 
d="M205 602h153v-876h-153v876zM205 784v775h153v-775h-153z" />
    <glyph glyph-name="section" unicode="&#xa7;" horiz-adv-x="1056" 
d="M276 580q0 -84 69 -130t154 -80t107 -44q76 31 125 83t49 107t-15 87t-71 69t-139 70q-82 32 -104 42q-175 -71 -175 -204zM698 -9q0 71 -61 118t-149 79t-175 73q-88 40 -149 118q-62 78 -62 184q0 107 52 187t141 124q-113 88 -113 239t100 248t267 97q258 0 366 -221
l-145 -92q-66 150 -229 149q-82 0 -132 -52q-51 -52 -51 -123t62 -118t148 -79q87 -32 175 -73q87 -40 149 -118t62 -184q0 -105 -52 -187t-140 -124q112 -94 112 -242t-100 -245t-266 -97q-258 0 -367 221l146 92q66 -150 229 -149q82 0 132 52t50 123z" />
    <glyph glyph-name="dieresis" unicode="&#xa8;" horiz-adv-x="794" 
d="M496 1321q0 59 41 99t98 40t98 -40t41 -99t-41 -99t-98 -40t-98 40t-41 99zM20 1321q0 59 41 99t99 40t98 -40q41 -40 41 -99t-41 -99t-98 -40t-99 40q-41 40 -41 99z" />
    <glyph glyph-name="copyright" unicode="&#xa9;" horiz-adv-x="1806" 
d="M659 737q0 -119 75 -193t192 -75q68 0 151 45l23 -145q-86 -37 -174 -37q-174 0 -290 116t-116 288q0 173 116 289t285 116t298 -129l-60 -129q-98 119 -224 119t-201 -74q-75 -72 -75 -191zM903 117q258 0 427 171t169 429t-169 429t-427 171t-427 -171t-169 -429
t169 -429t427 -171zM903 -27q-317 0 -528 213q-211 212 -211 530t211 531t528 213t529 -213t210 -530q0 -317 -210 -531q-212 -213 -529 -213z" />
    <glyph glyph-name="ordfeminine" unicode="&#xaa;" horiz-adv-x="946" 
d="M274 911q0 -45 38 -73t120 -27q82 0 150 58t67 132v41l-258 -28q-117 -14 -117 -103zM649 1223v24q0 45 -46 74t-122 29q-170 0 -202 -136l-144 76q63 203 336 203q338 0 338 -301v-516h-160v98q-91 -115 -237 -115t-224 71q-78 72 -78 182t72 172t180 73l238 21
q49 4 49 45z" />
    <glyph glyph-name="guillemotleft" unicode="&#xab;" horiz-adv-x="1153" 
d="M989 186l-117 -104l-378 430l378 430l117 -106l-291 -324zM578 186l-117 -104l-379 430l379 430l117 -106l-293 -324z" />
    <glyph glyph-name="logicalnot" unicode="&#xac;" 
d="M248 623v184h938v-520h-187v336h-751z" />
    <glyph glyph-name="softhyphen" unicode="&#xad;" horiz-adv-x="1081" 
d="M164 541v184h754v-184h-754z" />
    <glyph glyph-name="registered" unicode="&#xae;" horiz-adv-x="1806" 
d="M901 709q172 0 172 143q0 61 -40 102t-101 41h-176v-286h145zM756 588v-244h-127v776h303q116 0 192 -76t76 -192q0 -158 -125 -227l228 -281h-162l-197 244h-188zM903 117q258 0 427 171t169 429t-169 429t-427 171t-427 -171t-169 -429t169 -429t427 -171zM903 -27
q-317 0 -528 213q-211 212 -211 530t211 531t528 213t529 -213t210 -530q0 -317 -210 -531q-212 -213 -529 -213z" />
    <glyph glyph-name="macron" unicode="&#xaf;" horiz-adv-x="655" 
d="M20 1253v154h615v-154h-615z" />
    <glyph glyph-name="degree" unicode="&#xb0;" 
d="M864 1208q0 70 -41 114t-107 44t-106 -44q-41 -44 -41 -114t41 -114t107 -43q67 -1 107 43t40 114zM983 1208q0 -114 -76 -190q-77 -76 -191 -76t-190 76t-76 190t76 191q76 76 191 76t191 -76t75 -191z" />
    <glyph glyph-name="plusminus" unicode="&#xb1;" 
d="M231 236v180h969v-180h-969zM231 784v181h398v284h176v-284h395v-181h-395v-284h-176v284h-398z" />
    <glyph glyph-name="twosuperior" unicode="&#xb2;" horiz-adv-x="851" 
d="M428 1618q112 0 188 -73q78 -73 78 -187t-90 -209l-233 -246h313v-145h-543v121l359 372q45 49 45 103t-36 87q-36 32 -93 32t-106 -37q-48 -38 -77 -99l-114 99q43 80 120 131t189 51z" />
    <glyph glyph-name="threesuperior" unicode="&#xb3;" horiz-adv-x="800" 
d="M342 1264h49q57 0 92 26t35 76q0 49 -33 78t-82 29q-115 0 -159 -132l-119 99q31 76 103 127t180 51t184 -70t76 -173t-84 -183q84 -68 84 -184t-73 -183t-183 -67t-185 51q-74 51 -108 137l131 98q43 -141 151 -141q51 0 84 29t33 79t-35 79t-92 28h-49v146z" />
    <glyph glyph-name="acute" unicode="&#xb4;" horiz-adv-x="557" 
d="M20 1313l435 280l82 -131l-437 -272z" />
    <glyph glyph-name="uni00B5" unicode="&#xb5;" 
d="M457 1024v-606q0 -133 50 -206t175 -73q166 0 240 121q59 94 59 287v477h176v-1024h-170v147q-119 -172 -336 -172q-121 0 -200 45v-430h-175v1434h181z" />
    <glyph glyph-name="paragraph" unicode="&#xb6;" horiz-adv-x="1200" 
d="M995 1434v-1708h-159v1554h-213v-1554h-160v946q-162 0 -272 110t-109 271q0 161 110 271t271 110h532z" />
    <glyph glyph-name="periodcentered" unicode="&#xb7;" horiz-adv-x="700" 
d="M205 647q0 68 46 115t114 47q69 0 115 -47t46 -115q0 -67 -47 -113t-115 -46t-113 45q-46 46 -46 114z" />
    <glyph glyph-name="cedilla" unicode="&#xb8;" horiz-adv-x="323" 
d="M303 -155q0 -95 -51 -141q-50 -46 -116 -46t-116 20v119q51 -14 78 -14q66 1 66 79t-115 199h139q115 -121 115 -216z" />
    <glyph glyph-name="onesuperior" unicode="&#xb9;" horiz-adv-x="671" 
d="M514 1618v-860h-147v641l-181 -172l-104 104l299 287h133z" />
    <glyph glyph-name="ordmasculine" unicode="&#xba;" horiz-adv-x="1015" 
d="M509 817q111 0 183 75q72 76 72 184t-73 182t-183 75q-110 0 -182 -75q-72 -76 -72 -184t72 -182t183 -75zM508 1493q178 0 303 -122t125 -296t-125 -296t-303 -122t-303 122t-125 296t125 296t303 122z" />
    <glyph glyph-name="guillemotright" unicode="&#xbb;" horiz-adv-x="1155" 
d="M694 82l-116 104l292 326l-292 324l116 106l379 -430zM281 82l-117 104l293 326l-293 324l117 106l378 -430z" />
    <glyph glyph-name="onequarter" unicode="&#xbc;" horiz-adv-x="1843" 
d="M1405 311v291l-258 -291h258zM1552 311h177v-145h-177v-166h-147v166h-471v125l498 569h120v-549zM397 0l-102 84l1071 1350l102 -82zM547 1434v-861h-148v641l-180 -172l-104 105l299 287h133z" />
    <glyph glyph-name="onehalf" unicode="&#xbd;" horiz-adv-x="1843" 
d="M1430 860q112 0 190 -73t78 -187t-90 -209l-234 -246h314v-145h-543v121l358 373q45 49 45 103t-37 86t-88 32q-125 0 -186 -135l-115 98q43 80 120 131q76 51 188 51zM426 0l-102 84l1071 1350l102 -82zM575 1434v-861h-147v641l-180 -172l-105 105l299 287h133z" />
    <glyph glyph-name="threequarters" unicode="&#xbe;" horiz-adv-x="1843" 
d="M1425 311v291l-258 -291h258zM1573 311h176v-145h-176v-166h-148v166h-471v125l498 569h121v-549zM438 0l-102 84l1071 1350l102 -82zM317 1079h50q57 0 92 27t35 76t-32 78t-81 28q-117 0 -162 -131l-119 98q31 76 104 127q72 52 180 52t184 -70t75 -173
q0 -103 -84 -183q84 -68 84 -184t-73 -184t-182 -67q-109 -1 -184 51t-110 138l131 98q43 -141 152 -141q51 0 84 29q33 28 33 78t-35 79t-92 29h-50v145z" />
    <glyph glyph-name="questiondown" unicode="&#xbf;" horiz-adv-x="1005" 
d="M590 637v-84q0 -207 -201 -369q-123 -98 -123 -200t60 -163q60 -63 177 -63t189 80t72 211h180q0 -205 -122 -340t-317 -135t-309 108t-114 296t199 354q125 104 125 221v84h184zM637 911q0 -61 -39 -100t-100 -39t-101 39q-39 39 -39 100t39 101t101 39q62 1 100 -39
q39 -40 39 -101z" />
    <glyph glyph-name="Agrave" unicode="&#xc0;" horiz-adv-x="1568" 
d="M784 1210l-358 -774h717zM1548 0h-202l-115 252h-893l-115 -252h-203l668 1434h193zM614 1962l435 -281l-80 -122l-437 272z" />
    <glyph glyph-name="Aacute" unicode="&#xc1;" horiz-adv-x="1568" 
d="M784 1210l-358 -774h717zM1548 0h-202l-115 252h-893l-115 -252h-203l668 1434h193zM539 1681l434 281l82 -131l-437 -272z" />
    <glyph glyph-name="Acircumflex" unicode="&#xc2;" horiz-adv-x="1568" 
d="M784 1210l-358 -774h717zM1548 0h-202l-115 252h-893l-115 -252h-203l668 1434h193zM784 1776l-264 -230l-96 107l360 309l361 -309l-96 -107z" />
    <glyph glyph-name="Atilde" unicode="&#xc3;" horiz-adv-x="1568" 
d="M784 1210l-358 -774h717zM1548 0h-202l-115 252h-893l-115 -252h-203l668 1434h193zM670 1831q55 0 134 -48q78 -48 110 -48t108 80l98 -95q-119 -141 -217 -141q-55 0 -134 48t-111 48t-107 -80l-98 95q119 141 217 141z" />
    <glyph glyph-name="Adieresis" unicode="&#xc4;" horiz-adv-x="1568" 
d="M784 1210l-358 -774h717zM1548 0h-202l-115 252h-893l-115 -252h-203l668 1434h193zM1010 1511q0 57 40 99t99 41q59 0 99 -41q40 -40 40 -98t-40 -99t-99 -41t-99 41t-40 98zM281 1511q0 57 40 99t99 41q59 0 99 -41q40 -40 40 -98t-40 -99t-99 -41t-99 41t-40 98z" />
    <glyph glyph-name="Aring" unicode="&#xc5;" horiz-adv-x="1568" 
d="M784 1210l-358 -774h717zM1548 0h-202l-115 252h-893l-115 -252h-203l668 1434h193zM784 1655q49 0 79 32q30 33 30 81t-30 80t-79 32q-48 0 -78 -32t-30 -81t30 -81t78 -31zM784 1542q-98 0 -161 64t-64 161q-1 98 63 163t162 65t162 -65t64 -163q0 -97 -64 -161
t-162 -64z" />
    <glyph glyph-name="AE" unicode="&#xc6;" horiz-adv-x="2033" 
d="M1040 436v664l-479 -664h479zM1921 0h-883v252h-612l-178 -252h-238l1039 1434h872v-185h-696v-440h696v-184h-696v-441h696v-184z" />
    <glyph glyph-name="Ccedilla" unicode="&#xc7;" horiz-adv-x="1349" 
d="M971 -166q0 -84 -51 -130q-50 -46 -116 -46t-116 20v119q49 -14 78 -14q66 0 66 69t-64 148q-290 16 -482 220t-192 503t206 505t499 206t512 -205l-84 -174q-179 195 -415 195t-384 -149q-148 -148 -149 -384q0 -236 148 -384q147 -149 373 -149t396 164l64 -188
q-164 -127 -359 -154q70 -88 70 -172z" />
    <glyph glyph-name="Egrave" unicode="&#xc8;" horiz-adv-x="1157" 
d="M164 0v1434h880v-185h-696v-440h696v-184h-696v-441h696v-184h-880zM459 1962l434 -281l-80 -122l-436 272z" />
    <glyph glyph-name="Eacute" unicode="&#xc9;" horiz-adv-x="1157" 
d="M164 0v1434h880v-185h-696v-440h696v-184h-696v-441h696v-184h-880zM383 1681l434 281l82 -131l-436 -272z" />
    <glyph glyph-name="Ecircumflex" unicode="&#xca;" horiz-adv-x="1157" 
d="M164 0v1434h880v-185h-696v-440h696v-184h-696v-441h696v-184h-880zM629 1776l-264 -230l-97 107l361 309l360 -309l-96 -107z" />
    <glyph glyph-name="Edieresis" unicode="&#xcb;" horiz-adv-x="1157" 
d="M164 0v1434h880v-185h-696v-440h696v-184h-696v-441h696v-184h-880zM727 1690q0 59 40 99t99 40q60 0 100 -40t40 -99q0 -60 -40 -100t-100 -40t-99 40q-40 40 -40 100zM252 1690q0 59 40 99t99 40t99 -40t40 -99q0 -60 -40 -100t-99 -40t-99 40t-40 100z" />
    <glyph glyph-name="Igrave" unicode="&#xcc;" horiz-adv-x="512" 
d="M348 0h-184v1434h184v-1434zM86 1962l434 -281l-80 -122l-436 272z" />
    <glyph glyph-name="Iacute" unicode="&#xcd;" horiz-adv-x="512" 
d="M348 0h-184v1434h184v-1434zM10 1681l434 281l82 -131l-436 -272z" />
    <glyph glyph-name="Icircumflex" unicode="&#xce;" horiz-adv-x="512" 
d="M348 0h-184v1434h184v-1434zM256 1776l-264 -230l-96 107l360 309l360 -309l-96 -107z" />
    <glyph glyph-name="Idieresis" unicode="&#xcf;" horiz-adv-x="552" 
d="M369 0h-185v1434h185v-1434zM438 1511q0 57 41 99t99 41q58 0 98 -41q41 -40 41 -98t-41 -99t-98 -41t-99 41q-41 41 -41 98zM-164 1511q0 57 41 99t98 41q57 0 99 -41q42 -40 41 -98q0 -58 -41 -99q-40 -41 -98 -41t-99 41t-41 98z" />
    <glyph glyph-name="Eth" unicode="&#xd0;" horiz-adv-x="1472" 
d="M655 1249h-307v-430h348v-184h-348v-451h307q231 0 381 150t150 383t-150 383t-381 149zM0 635v184h164v615h491q305 0 510 -204t205 -513t-205 -513t-510 -204h-491v635h-164z" />
    <glyph glyph-name="Ntilde" unicode="&#xd1;" horiz-adv-x="1611" 
d="M1448 0h-176l-924 1120v-1120h-184v1434h170l930 -1129v1129h184v-1434zM743 1831q55 0 135 -48t110 -48q32 0 108 80l98 -95q-119 -141 -217 -141q-55 0 -134 48t-111 48t-107 -80l-99 95q119 141 217 141z" />
    <glyph glyph-name="Ograve" unicode="&#xd2;" horiz-adv-x="1634" 
d="M817 184q229 0 380 152t151 381t-151 381t-380 152t-380 -152t-151 -381t152 -381q150 -152 379 -152zM818 1434q306 0 510 -205t204 -512t-204 -512t-510 -205t-511 205t-205 512t205 512t511 205zM647 1962l434 -281l-80 -122l-436 272z" />
    <glyph glyph-name="Oacute" unicode="&#xd3;" horiz-adv-x="1634" 
d="M817 184q229 0 380 152t151 381t-151 381t-380 152t-380 -152t-151 -381t152 -381q150 -152 379 -152zM818 1434q306 0 510 -205t204 -512t-204 -512t-510 -205t-511 205t-205 512t205 512t511 205zM571 1681l435 281l81 -131l-436 -272z" />
    <glyph glyph-name="Ocircumflex" unicode="&#xd4;" horiz-adv-x="1634" 
d="M817 184q229 0 380 152t151 381t-151 381t-380 152t-380 -152t-151 -381t152 -381q150 -152 379 -152zM818 1434q306 0 510 -205t204 -512t-204 -512t-510 -205t-511 205t-205 512t205 512t511 205zM817 1776l-264 -230l-96 107l360 309l361 -309l-97 -107z" />
    <glyph glyph-name="Otilde" unicode="&#xd5;" horiz-adv-x="1634" 
d="M817 184q229 0 380 152t151 381t-151 381t-380 152t-380 -152t-151 -381t152 -381q150 -152 379 -152zM818 1434q306 0 510 -205t204 -512t-204 -512t-510 -205t-511 205t-205 512t205 512t511 205zM702 1831q54 0 134 -48t112 -48t107 80l98 -95q-119 -141 -217 -141
q-55 0 -134 48q-78 48 -110 48t-108 -80l-99 95q119 141 217 141z" />
    <glyph glyph-name="Odieresis" unicode="&#xd6;" horiz-adv-x="1671" 
d="M836 184q230 0 380 152t150 381t-151 381t-379 152t-380 -152q-151 -152 -151 -381t151 -381t380 -152zM837 1434q306 0 510 -205q203 -205 203 -512t-204 -512t-509 -205q-306 0 -511 205t-205 512t205 512t511 205zM1290 1511q0 57 41 99t99 41q58 0 98 -41
q41 -40 41 -98t-41 -99t-98 -41t-99 41q-41 41 -41 98zM102 1511q0 57 41 99t99 41q58 0 98 -41q41 -40 41 -98t-41 -99t-98 -41t-99 41q-41 41 -41 98z" />
    <glyph glyph-name="multiply" unicode="&#xd7;" 
d="M231 1012l123 123l361 -361l362 363l123 -125l-360 -363l360 -360l-123 -125l-362 362l-361 -360l-123 123l361 360z" />
    <glyph glyph-name="Oslash" unicode="&#xd8;" horiz-adv-x="1634" 
d="M817 184q229 0 380 152t151 372t-131 367l-689 -811q127 -80 289 -80zM817 1249q-229 1 -380 -151t-151 -374t132 -368l690 813q-127 80 -291 80zM102 721q0 303 205 508t510 205q231 0 412 -123l131 155l108 -94l-131 -153q195 -205 195 -507t-204 -507t-511 -205
q-231 0 -409 121l-132 -154l-110 92l131 154q-195 205 -195 508z" />
    <glyph glyph-name="Ugrave" unicode="&#xd9;" horiz-adv-x="1597" 
d="M143 655v779h185v-779q0 -201 135 -336t336 -135t336 135t135 336v779h184v-779q0 -279 -188 -467t-467 -188t-467 188t-189 467zM629 1962l434 -281l-80 -122l-436 272z" />
    <glyph glyph-name="Uacute" unicode="&#xda;" horiz-adv-x="1597" 
d="M143 655v779h185v-779q0 -201 135 -336t336 -135t336 135t135 336v779h184v-779q0 -279 -188 -467t-467 -188t-467 188t-189 467zM553 1681l434 281l82 -131l-436 -272z" />
    <glyph glyph-name="Ucircumflex" unicode="&#xdb;" horiz-adv-x="1597" 
d="M143 655v779h185v-779q0 -201 135 -336t336 -135t336 135t135 336v779h184v-779q0 -279 -188 -467t-467 -188t-467 188t-189 467zM799 1776l-264 -230l-97 107l361 309l360 -309l-96 -107z" />
    <glyph glyph-name="Udieresis" unicode="&#xdc;" horiz-adv-x="1597" 
d="M143 655v779h185v-779q0 -201 135 -336t336 -135t336 135t135 336v779h184v-779q0 -279 -188 -467t-467 -188t-467 188t-189 467zM889 1511q0 57 41 99t98 41q57 0 98 -41q41 -40 41 -98t-41 -99t-98 -41t-98 41t-41 98zM430 1511q0 57 41 99t98 41q57 0 99 -41
q42 -40 41 -98q0 -58 -41 -99q-40 -41 -98 -41t-99 41t-41 98z" />
    <glyph glyph-name="Yacute" unicode="&#xdd;" horiz-adv-x="1355" 
d="M770 0h-184v604l-576 830h226l442 -639l442 639h226l-576 -830v-604zM432 1681l434 281l82 -131l-436 -272z" />
    <glyph glyph-name="Thorn" unicode="&#xde;" horiz-adv-x="1216" 
d="M348 438h273q119 0 201 80t83 199q0 119 -83 199t-201 79h-273v-557zM621 254h-273v-254h-184v1434h182v-254h275q205 0 339 -131t134 -332t-134 -332t-339 -131z" />
    <glyph glyph-name="germandbls" unicode="&#xdf;" horiz-adv-x="1173" 
d="M143 -154v1141q0 217 110 345t322 128t318 -102t106 -260q0 -104 -50 -184t-140 -113q133 -27 218 -125t85 -258q0 -205 -131 -319t-352 -113q-61 0 -129 6v162q55 -4 110 -4q147 0 237 67q89 68 89 204t-104 209t-273 77v155q264 18 264 236q0 90 -67 144
q-68 54 -185 54t-185 -80t-67 -229v-1141h-176z" />
    <glyph glyph-name="agrave" unicode="&#xe0;" horiz-adv-x="1085" 
d="M272 293q0 -68 50 -108t162 -40t202 84t90 185v75l-342 -40q-162 -20 -162 -156zM776 717v22q0 68 -60 110t-163 42q-231 0 -264 -186l-160 86q66 258 408 258q209 -1 312 -101t103 -282v-666h-176v145q-49 -77 -137 -121t-193 -44q-166 0 -260 88t-94 227t88 222t223 95
l297 29q36 1 56 23t20 53zM367 1593l434 -280l-80 -123l-436 272z" />
    <glyph glyph-name="aacute" unicode="&#xe1;" horiz-adv-x="1085" 
d="M272 293q0 -68 50 -108t162 -40t202 84t90 185v75l-342 -40q-162 -20 -162 -156zM776 717v22q0 68 -60 110t-163 42q-231 0 -264 -186l-160 86q66 258 408 258q209 -1 312 -101t103 -282v-666h-176v145q-49 -77 -137 -121t-193 -44q-166 0 -260 88t-94 227t88 222t223 95
l297 29q36 1 56 23t20 53zM285 1313l434 280l82 -131l-436 -272z" />
    <glyph glyph-name="acircumflex" unicode="&#xe2;" horiz-adv-x="1085" 
d="M272 293q0 -68 50 -108t162 -40t202 84t90 185v75l-342 -40q-162 -20 -162 -156zM776 717v22q0 68 -60 110t-163 42q-231 0 -264 -186l-160 86q66 258 408 258q209 -1 312 -101t103 -282v-666h-176v145q-49 -77 -137 -121t-193 -44q-166 0 -260 88t-94 227t88 222t223 95
l297 29q36 1 56 23t20 53zM543 1407l-264 -229l-97 106l361 309l360 -309l-96 -106z" />
    <glyph glyph-name="atilde" unicode="&#xe3;" horiz-adv-x="1085" 
d="M272 293q0 -68 50 -108t162 -40t202 84t90 185v75l-342 -40q-162 -20 -162 -156zM776 717v22q0 68 -60 110t-163 42q-231 0 -264 -186l-160 86q66 258 408 258q209 -1 312 -101t103 -282v-666h-176v145q-49 -77 -137 -121t-193 -44q-166 0 -260 88t-94 227t88 222t223 95
l297 29q36 1 56 23t20 53zM426 1462q55 0 134 -48t111 -48t107 80l99 -94q-119 -141 -218 -142q-55 0 -134 48t-111 48t-107 -79l-98 94q119 141 217 141z" />
    <glyph glyph-name="adieresis" unicode="&#xe4;" horiz-adv-x="1085" 
d="M272 293q0 -68 50 -108t162 -40t202 84t90 185v75l-342 -40q-162 -20 -162 -156zM776 717v22q0 68 -60 110t-163 42q-231 0 -264 -186l-160 86q66 258 408 258q209 -1 312 -101t103 -282v-666h-176v145q-49 -77 -137 -121t-193 -44q-166 0 -260 88t-94 227t88 222t223 95
l297 29q36 1 56 23t20 53zM641 1321q0 59 40 99t99 40q60 0 100 -40t40 -99t-40 -99t-100 -40t-99 40q-40 40 -40 99zM166 1321q0 59 40 99t99 40t99 -40t40 -99t-40 -99t-99 -40t-99 40t-40 99z" />
    <glyph glyph-name="aring" unicode="&#xe5;" horiz-adv-x="1085" 
d="M272 293q0 -68 50 -108t162 -40t202 84t90 185v75l-342 -40q-162 -20 -162 -156zM776 717v22q0 68 -60 110t-163 42q-231 0 -264 -186l-160 86q66 258 408 258q209 -1 312 -101t103 -282v-666h-176v145q-49 -77 -137 -121t-193 -44q-166 0 -260 88t-94 227t88 222t223 95
l297 29q36 1 56 23t20 53zM543 1286q49 0 79 32t29 81q0 49 -29 81q-30 32 -79 32t-79 -32t-30 -81t30 -81t79 -32zM543 1174q-98 0 -162 63q-63 63 -63 161t62 164q64 64 162 64t163 -64q63 -65 63 -163t-63 -162q-64 -63 -162 -63z" />
    <glyph glyph-name="ae" unicode="&#xe6;" horiz-adv-x="1771" 
d="M272 288q0 -64 56 -103q56 -40 166 -40q112 0 197 80t85 189v73l-340 -38q-80 -9 -122 -53t-42 -108zM1243 885q-125 0 -200 -76t-93 -209h580q-10 129 -86 207t-201 78zM92 296q0 138 91 220t223 94l294 29q35 2 56 25q20 23 20 51v24q0 70 -59 111t-166 41
q-231 0 -264 -189l-160 86q68 260 405 261q262 0 357 -164q123 164 346 164t353 -152t132 -385v-53h-784q4 -147 90 -233t217 -87q187 0 320 166l94 -143q-80 -92 -174 -139t-240 -48q-258 0 -393 213q-34 -46 -60 -74t-73 -64q-91 -70 -259 -70q-167 0 -267 89
q-99 89 -99 227z" />
    <glyph glyph-name="ccedilla" unicode="&#xe7;" horiz-adv-x="1011" 
d="M530 -217q66 0 66 70q0 55 -45 124q-213 14 -351 165t-138 375t151 378q152 154 375 154t364 -152l-110 -139q-100 121 -250 121q-150 -1 -248 -103q-100 -102 -100 -265t99 -264t249 -101t260 126l109 -141q-111 -119 -277 -147q51 -74 51 -154t-51 -126
q-50 -46 -116 -46t-115 20v119q51 -14 77 -14z" />
    <glyph glyph-name="egrave" unicode="&#xe8;" horiz-adv-x="1110" 
d="M569 885q-125 0 -211 -78t-108 -207h616q-16 129 -94 207t-203 78zM562 1049q224 0 360 -153t137 -384v-53h-821q8 -152 103 -236t234 -84q191 0 326 158l90 -135q-166 -186 -402 -186q-235 0 -381 146q-146 148 -146 380t138 389q138 158 362 158zM406 1593l434 -280
l-80 -123l-436 272z" />
    <glyph glyph-name="eacute" unicode="&#xe9;" horiz-adv-x="1110" 
d="M569 885q-125 0 -211 -78t-108 -207h616q-16 129 -94 207t-203 78zM562 1049q224 0 360 -153t137 -384v-53h-821q8 -152 103 -236t234 -84q191 0 326 158l90 -135q-166 -186 -402 -186q-235 0 -381 146q-146 148 -146 380t138 389q138 158 362 158zM338 1313l434 280
l82 -131l-436 -272z" />
    <glyph glyph-name="ecircumflex" unicode="&#xea;" horiz-adv-x="1110" 
d="M569 885q-125 0 -211 -78t-108 -207h616q-16 129 -94 207t-203 78zM562 1049q224 0 360 -153t137 -384v-53h-821q8 -152 103 -236t234 -84q191 0 326 158l90 -135q-166 -186 -402 -186q-235 0 -381 146q-146 148 -146 380t138 389q138 158 362 158zM575 1407l-264 -229
l-96 106l360 309l361 -309l-96 -106z" />
    <glyph glyph-name="edieresis" unicode="&#xeb;" horiz-adv-x="1110" 
d="M569 885q-125 0 -211 -78t-108 -207h616q-16 129 -94 207t-203 78zM562 1049q224 0 360 -153t137 -384v-53h-821q8 -152 103 -236t234 -84q191 0 326 158l90 -135q-166 -186 -402 -186q-235 0 -381 146q-146 148 -146 380t138 389q138 158 362 158zM684 1321q0 59 41 99
t98 40t99 -40t41 -99q0 -59 -41 -99q-40 -40 -98 -40t-99 40t-41 99zM209 1321q0 59 41 99t98 40t98 -40t41 -99t-41 -99t-98 -40t-98 40t-41 99z" />
    <glyph glyph-name="igrave" unicode="&#xec;" horiz-adv-x="524" 
d="M174 0v1024h176v-1024h-176zM4 1593l434 -280l-80 -123l-436 272z" />
    <glyph glyph-name="iacute" unicode="&#xed;" horiz-adv-x="524" 
d="M174 0v1024h176v-1024h-176zM102 1313l435 280l81 -131l-436 -272z" />
    <glyph glyph-name="icircumflex" unicode="&#xee;" horiz-adv-x="524" 
d="M174 0v1024h176v-1024h-176zM262 1407l-264 -229l-96 106l360 309l361 -309l-97 -106z" />
    <glyph glyph-name="idieresis" unicode="&#xef;" horiz-adv-x="524" 
d="M174 0v1024h176v-1024h-176zM360 1321q0 59 41 99t99 40t98 -40q41 -40 41 -99t-41 -99t-98 -40t-99 40q-41 40 -41 99zM-115 1321q0 59 41 99q40 40 98 40t99 -40t41 -99t-41 -99t-98 -40t-99 40q-41 40 -41 99z" />
    <glyph glyph-name="eth" unicode="&#xf0;" horiz-adv-x="1247" 
d="M938 509q0 163 -93 266t-253 103t-254 -100q-94 -102 -94 -265t96 -265t248 -102t251 100t99 263zM578 1049q222 0 348 -177q-41 256 -226 424l-208 -141l-82 113l174 118q-80 51 -207 103l59 135q160 -53 289 -141l182 123l82 -115l-149 -100q285 -274 284 -744
q0 -319 -152 -495t-384 -176q-233 0 -380 149q-146 150 -146 385t146 387q148 152 370 152z" />
    <glyph glyph-name="ntilde" unicode="&#xf1;" horiz-adv-x="1181" 
d="M858 0v610q0 133 -60 204t-177 71q-166 0 -242 -121q-59 -94 -60 -287v-477h-176v1024h170v-135q115 160 323 160t305 -120t97 -327v-602h-180zM473 1462q55 0 134 -48t111 -48t107 80l99 -94q-119 -141 -217 -142q-55 0 -135 48t-110 48q-32 0 -108 -79l-98 94
q119 141 217 141z" />
    <glyph glyph-name="ograve" unicode="&#xf2;" horiz-adv-x="1196" 
d="M598 145q152 -1 253 105t101 262t-101 261t-253 105t-253 -104q-101 -106 -101 -262t101 -262t253 -105zM598 1049q223 0 380 -157t157 -380t-157 -380t-380 -157t-380 157t-157 380t157 380t380 157zM422 1593l434 -280l-80 -123l-436 272z" />
    <glyph glyph-name="oacute" unicode="&#xf3;" horiz-adv-x="1196" 
d="M598 145q152 -1 253 105t101 262t-101 261t-253 105t-253 -104q-101 -106 -101 -262t101 -262t253 -105zM598 1049q223 0 380 -157t157 -380t-157 -380t-380 -157t-380 157t-157 380t157 380t380 157zM340 1313l434 280l82 -131l-436 -272z" />
    <glyph glyph-name="ocircumflex" unicode="&#xf4;" horiz-adv-x="1196" 
d="M598 145q152 -1 253 105t101 262t-101 261t-253 105t-253 -104q-101 -106 -101 -262t101 -262t253 -105zM598 1049q223 0 380 -157t157 -380t-157 -380t-380 -157t-380 157t-157 380t157 380t380 157zM598 1407l-264 -229l-96 106l360 309l360 -309l-96 -106z" />
    <glyph glyph-name="otilde" unicode="&#xf5;" horiz-adv-x="1196" 
d="M598 145q152 -1 253 105t101 262t-101 261t-253 105t-253 -104q-101 -106 -101 -262t101 -262t253 -105zM598 1049q223 0 380 -157t157 -380t-157 -380t-380 -157t-380 157t-157 380t157 380t380 157zM481 1462q55 0 134 -48t111 -48t108 80l98 -94q-119 -141 -217 -142
q-55 0 -134 48t-111 48t-108 -79l-98 94q119 141 217 141z" />
    <glyph glyph-name="odieresis" unicode="&#xf6;" horiz-adv-x="1196" 
d="M598 145q152 -1 253 105t101 262t-101 261t-253 105t-253 -104q-101 -106 -101 -262t101 -262t253 -105zM598 1049q223 0 380 -157t157 -380t-157 -380t-380 -157t-380 157t-157 380t157 380t380 157zM696 1321q0 59 41 99t99 40t98 -40q41 -40 41 -99t-41 -99t-98 -40
t-99 40q-41 40 -41 99zM221 1321q0 59 41 99t98 40q56 0 98 -40t42 -99t-41 -99t-99 -40t-98 40q-41 40 -41 99z" />
    <glyph glyph-name="divide" unicode="&#xf7;" 
d="M537 266q0 68 46 115q45 47 113 47t115 -47t47 -115t-47 -114t-115 -46t-114 46t-45 114zM156 551v184h1122v-184h-1122zM537 1018q0 68 46 115q45 47 113 47t115 -47t47 -115t-47 -114t-115 -46t-114 46t-45 114z" />
    <glyph glyph-name="oslash" unicode="&#xf8;" horiz-adv-x="1196" 
d="M883 735l-463 -542q80 -45 178 -46q152 -1 253 105t101 262q1 121 -69 221zM598 881q-152 1 -253 -105t-101 -250t69 -237l463 545q-84 47 -178 47zM598 1051q160 0 291 -86l78 92l108 -94l-78 -93q137 -150 137 -364t-156 -372q-157 -157 -380 -157q-160 0 -289 84
l-80 -94l-110 92l80 95q-137 154 -137 368t156 372q157 157 380 157z" />
    <glyph glyph-name="ugrave" unicode="&#xf9;" horiz-adv-x="1167" 
d="M324 1024v-606q0 -133 50 -206t175 -73q166 0 239 121q59 94 60 287v477h176v-1024h-170v147q-121 -172 -336 -172q-375 0 -375 443v606h181zM408 1593l434 -280l-80 -123l-436 272z" />
    <glyph glyph-name="uacute" unicode="&#xfa;" horiz-adv-x="1167" 
d="M324 1024v-606q0 -133 50 -206t175 -73q166 0 239 121q59 94 60 287v477h176v-1024h-170v147q-121 -172 -336 -172q-375 0 -375 443v606h181zM326 1313l434 280l82 -131l-436 -272z" />
    <glyph glyph-name="ucircumflex" unicode="&#xfb;" horiz-adv-x="1167" 
d="M324 1024v-606q0 -133 50 -206t175 -73q166 0 239 121q59 94 60 287v477h176v-1024h-170v147q-121 -172 -336 -172q-375 0 -375 443v606h181zM584 1407l-265 -229l-96 106l361 309l360 -309l-96 -106z" />
    <glyph glyph-name="udieresis" unicode="&#xfc;" horiz-adv-x="1167" 
d="M324 1024v-606q0 -133 50 -206t175 -73q166 0 239 121q59 94 60 287v477h176v-1024h-170v147q-121 -172 -336 -172q-375 0 -375 443v606h181zM682 1321q0 59 40 99t99 40t99 -40t41 -99q0 -59 -40 -99q-39 -40 -99 -40t-100 40t-40 99zM207 1321q0 59 40 99t99 40t99 -40
t40 -99t-40 -99t-99 -40t-99 40t-40 99z" />
    <glyph glyph-name="yacute" unicode="&#xfd;" horiz-adv-x="1075" 
d="M20 1024h213l326 -680l320 680h186l-662 -1434h-190l252 549zM279 1313l434 280l82 -131l-437 -272z" />
    <glyph glyph-name="thorn" unicode="&#xfe;" horiz-adv-x="1193" 
d="M628 180q148 0 235 93t87 239t-87 238q-87 94 -235 94t-234 -90q-87 -90 -87 -242t87 -242q86 -90 234 -90zM319 -410h-176v1844h176v-551l3 4q138 127 340 127t336 -136t134 -366t-132 -366q-134 -136 -339 -136t-342 137v-557z" />
    <glyph glyph-name="ydieresis" unicode="&#xff;" horiz-adv-x="1075" 
d="M20 1024h213l326 -680l320 680h186l-662 -1434h-190l252 549zM635 1321q0 59 41 99t98 40t98 -40t41 -99t-41 -99t-98 -40t-98 40t-41 99zM160 1321q0 59 41 99t98 40t98 -40t41 -99t-41 -99t-98 -40t-98 40t-41 99z" />
    <glyph glyph-name="Amacron" unicode="&#x100;" horiz-adv-x="1568" 
d="M784 1210l-358 -774h717zM1548 0h-202l-115 252h-893l-115 -252h-203l668 1434h193zM477 1622v154h615v-154h-615z" />
    <glyph glyph-name="amacron" unicode="&#x101;" horiz-adv-x="1085" 
d="M272 293q0 -68 50 -108t162 -40t202 84t90 185v75l-342 -40q-162 -20 -162 -156zM776 717v22q0 68 -60 110t-163 42q-231 0 -264 -186l-160 86q66 258 408 258q209 -1 312 -101t103 -282v-666h-176v145q-49 -77 -137 -121t-193 -44q-166 0 -260 88t-94 227t88 222t223 95
l297 29q36 1 56 23t20 53zM236 1253v154h614v-154h-614z" />
    <glyph glyph-name="Abreve" unicode="&#x102;" horiz-adv-x="1568" 
d="M784 1210l-358 -774h717zM1548 0h-202l-115 252h-893l-115 -252h-203l668 1434h193zM926 1866h149q0 -142 -78 -228t-213 -86t-213 86t-77 228h149q-1 -166 141 -166t142 166z" />
    <glyph glyph-name="abreve" unicode="&#x103;" horiz-adv-x="1085" 
d="M272 293q0 -68 50 -108t162 -40t202 84t90 185v75l-342 -40q-162 -20 -162 -156zM776 717v22q0 68 -60 110t-163 42q-231 0 -264 -186l-160 86q66 258 408 258q209 -1 312 -101t103 -282v-666h-176v145q-49 -77 -137 -121t-193 -44q-166 0 -260 88t-94 227t88 222t223 95
l297 29q36 1 56 23t20 53zM684 1497h150q0 -141 -78 -227t-213 -86t-213 86t-78 227h149q-1 -166 141 -166t142 166z" />
    <glyph glyph-name="Aogonek" unicode="&#x104;" horiz-adv-x="1568" 
d="M784 1210l-358 -774h717zM1360 -148q0 -68 63 -69q27 0 78 14v-119q-49 -20 -115 -20t-116 46q-51 46 -51 140t104 205l-92 203h-893l-115 -252h-203l668 1434h193l667 -1434h-127q-61 -80 -61 -148z" />
    <glyph glyph-name="aogonek" unicode="&#x105;" horiz-adv-x="1085" 
d="M272 293q0 -68 50 -108t162 -40t202 84t90 185v75l-342 -40q-162 -20 -162 -156zM776 717v22q0 68 -60 110t-163 42q-231 0 -264 -186l-160 86q66 258 408 258q209 -1 312 -101t103 -282v-666h-82q-61 -80 -61 -148t63 -69q27 0 78 14v-119q-48 -20 -114 -20t-117 46
t-51 142t108 207v92q-49 -77 -137 -121t-193 -44q-166 0 -260 88t-94 227t88 222t223 95l297 29q36 1 56 23t20 53z" />
    <glyph glyph-name="Cacute" unicode="&#x106;" horiz-adv-x="1349" 
d="M279 717q0 -236 148 -384q147 -149 373 -149t396 164l64 -188q-203 -160 -453 -160q-301 0 -507 206t-206 511t206 511t499 206t512 -205l-84 -174q-179 195 -415 195t-384 -149q-148 -148 -149 -384zM580 1681l434 281l82 -131l-437 -272z" />
    <glyph glyph-name="cacute" unicode="&#x107;" horiz-adv-x="1011" 
d="M588 -25q-223 0 -375 154t-152 383t152 383t375 154t364 -152l-110 -139q-100 121 -250 121q-150 -1 -248 -103q-100 -102 -100 -265t99 -264t249 -101t260 126l109 -141q-150 -156 -373 -156zM340 1313l434 280l82 -131l-436 -272z" />
    <glyph glyph-name="Ccircumflex" unicode="&#x108;" horiz-adv-x="1349" 
d="M279 717q0 -236 148 -384q147 -149 373 -149t396 164l64 -188q-203 -160 -453 -160q-301 0 -507 206t-206 511t206 511t499 206t512 -205l-84 -174q-179 195 -415 195t-384 -149q-148 -148 -149 -384zM768 1776l-264 -230l-96 107l360 309l360 -309l-96 -107z" />
    <glyph glyph-name="ccircumflex" unicode="&#x109;" horiz-adv-x="1011" 
d="M588 -25q-223 0 -375 154t-152 383t152 383t375 154t364 -152l-110 -139q-100 121 -250 121q-150 -1 -248 -103q-100 -102 -100 -265t99 -264t249 -101t260 126l109 -141q-150 -156 -373 -156zM573 1407l-264 -229l-96 106l360 309l361 -309l-96 -106z" />
    <glyph glyph-name="Cdotaccent" unicode="&#x10a;" horiz-adv-x="1349" 
d="M279 717q0 -236 148 -384q147 -149 373 -149t396 164l64 -188q-203 -160 -453 -160q-301 0 -507 206t-206 511t206 511t499 206t512 -205l-84 -174q-179 195 -415 195t-384 -149q-148 -148 -149 -384zM686 1690q0 59 40 99t99 40t99 -40t41 -99q0 -60 -40 -100
q-39 -40 -99 -40t-100 40t-40 100z" />
    <glyph glyph-name="cdotaccent" unicode="&#x10b;" horiz-adv-x="1011" 
d="M588 -25q-223 0 -375 154t-152 383t152 383t375 154t364 -152l-110 -139q-100 121 -250 121q-150 -1 -248 -103q-100 -102 -100 -265t99 -264t249 -101t260 126l109 -141q-150 -156 -373 -156zM449 1321q0 59 39 99q40 40 100 40t99 -40q40 -40 40 -99t-40 -99t-99 -40
t-100 40q-39 40 -39 99z" />
    <glyph glyph-name="Ccaron" unicode="&#x10c;" horiz-adv-x="1349" 
d="M279 717q0 -236 148 -384q147 -149 373 -149t396 164l64 -188q-203 -160 -453 -160q-301 0 -507 206t-206 511t206 511t499 206t512 -205l-84 -174q-179 195 -415 195t-384 -149q-148 -148 -149 -384zM508 1962l264 -229l264 229l97 -107l-361 -309l-360 309z" />
    <glyph glyph-name="ccaron" unicode="&#x10d;" horiz-adv-x="1011" 
d="M588 -25q-223 0 -375 154t-152 383t152 383t375 154t364 -152l-110 -139q-100 121 -250 121q-150 -1 -248 -103q-100 -102 -100 -265t99 -264t249 -101t260 126l109 -141q-150 -156 -373 -156zM311 1593l264 -229l265 229l96 -106l-361 -309l-360 309z" />
    <glyph glyph-name="Dcaron" unicode="&#x10e;" horiz-adv-x="1472" 
d="M655 1249h-307v-1065h307q231 0 381 150t150 383t-150 383t-381 149zM164 0v1434h491q305 0 510 -204t205 -513t-205 -513t-510 -204h-491zM324 1962l264 -229l264 229l96 -107l-360 -309l-361 309z" />
    <glyph glyph-name="dcaron" unicode="&#x10f;" horiz-adv-x="1554" 
d="M244 512q0 -164 95 -268t252 -105t247 101t90 272t-90 271t-247 101t-252 -104t-95 -268zM915 0v147q-53 -79 -146 -125t-212 -47q-215 -1 -355 147t-140 391t140 389t370 146t343 -163v549h177v-1434h-177zM1369 1460q60 0 102 -44t42 -87t-22 -84l-166 -297l-94 53
l100 177q-47 14 -76 54t-29 90t42 94q41 44 101 44z" />
    <glyph glyph-name="Dcroat" unicode="&#x110;" horiz-adv-x="1472" 
d="M655 1249h-307v-430h348v-184h-348v-451h307q231 0 381 150t150 383t-150 383t-381 149zM0 635v184h164v615h491q305 0 510 -204t205 -513t-205 -513t-510 -204h-491v635h-164z" />
    <glyph glyph-name="dcroat" unicode="&#x111;" horiz-adv-x="1234" 
d="M244 512q0 -164 95 -268t252 -105t247 101t90 272t-90 271t-247 101t-252 -104t-95 -268zM670 1178v157h245v99h177v-99h114v-157h-114v-1178h-177v147q-53 -79 -146 -125t-212 -47q-215 -1 -355 147t-140 391t140 389t370 146t343 -163v293h-245z" />
    <glyph glyph-name="Emacron" unicode="&#x112;" horiz-adv-x="1157" 
d="M164 0v1434h880v-185h-696v-440h696v-184h-696v-441h696v-184h-880zM322 1622v154h614v-154h-614z" />
    <glyph glyph-name="emacron" unicode="&#x113;" horiz-adv-x="1110" 
d="M569 885q-125 0 -211 -78t-108 -207h616q-16 129 -94 207t-203 78zM562 1049q224 0 360 -153t137 -384v-53h-821q8 -152 103 -236t234 -84q191 0 326 158l90 -135q-166 -186 -402 -186q-235 0 -381 146q-146 148 -146 380t138 389q138 158 362 158zM268 1253v154h615
v-154h-615z" />
    <glyph glyph-name="Ebreve" unicode="&#x114;" horiz-adv-x="1157" 
d="M164 0v1434h880v-185h-696v-440h696v-184h-696v-441h696v-184h-880zM770 1866h150q0 -142 -78 -228t-213 -86t-213 86t-78 228h149q-1 -166 141 -166t142 166z" />
    <glyph glyph-name="ebreve" unicode="&#x115;" horiz-adv-x="1110" 
d="M569 885q-125 0 -211 -78t-108 -207h616q-16 129 -94 207t-203 78zM562 1049q224 0 360 -153t137 -384v-53h-821q8 -152 103 -236t234 -84q191 0 326 158l90 -135q-166 -186 -402 -186q-235 0 -381 146q-146 148 -146 380t138 389q138 158 362 158zM715 1497h149
q0 -141 -78 -227t-213 -86t-213 86t-77 227h149q0 -166 142 -166t141 166z" />
    <glyph glyph-name="Edotaccent" unicode="&#x116;" horiz-adv-x="1157" 
d="M164 0v1434h880v-185h-696v-440h696v-184h-696v-441h696v-184h-880zM489 1690q0 59 40 99q39 40 99 40t100 -40t40 -99q0 -60 -40 -100t-99 -40t-100 40q-40 41 -40 100z" />
    <glyph glyph-name="edotaccent" unicode="&#x117;" horiz-adv-x="1110" 
d="M569 885q-125 0 -211 -78t-108 -207h616q-16 129 -94 207t-203 78zM562 1049q224 0 360 -153t137 -384v-53h-821q8 -152 103 -236t234 -84q191 0 326 158l90 -135q-166 -186 -402 -186q-235 0 -381 146q-146 148 -146 380t138 389q138 158 362 158zM432 1321q0 59 40 99
t99 40t99 -40t41 -99q0 -59 -40 -99q-39 -40 -99 -40t-100 40t-40 99z" />
    <glyph glyph-name="Eogonek" unicode="&#x118;" horiz-adv-x="1157" 
d="M164 0v1434h880v-185h-696v-440h696v-184h-696v-441h696v-184h-118q-62 -80 -62 -148t64 -69q27 0 78 14v-119q-49 -20 -115 -20t-117 46t-51 131t61 165h-620z" />
    <glyph glyph-name="eogonek" unicode="&#x119;" horiz-adv-x="1110" 
d="M569 885q-125 0 -211 -78t-108 -207h616q-16 129 -94 207t-203 78zM596 -152q0 -66 63 -65q29 0 78 14v-119q-49 -20 -115 -20t-116 46q-51 46 -51 124t47 154q-199 24 -320 166t-121 364q1 222 139 379q138 158 362 158t360 -153t137 -384v-53h-821q8 -152 103 -236
t234 -84q191 0 326 158l90 -135q-143 -162 -350 -182q-45 -66 -45 -132z" />
    <glyph glyph-name="Ecaron" unicode="&#x11a;" horiz-adv-x="1157" 
d="M164 0v1434h880v-185h-696v-440h696v-184h-696v-441h696v-184h-880zM365 1962l264 -229l264 229l96 -107l-360 -309l-361 309z" />
    <glyph glyph-name="ecaron" unicode="&#x11b;" horiz-adv-x="1110" 
d="M569 885q-125 0 -211 -78t-108 -207h616q-16 129 -94 207t-203 78zM562 1049q224 0 360 -153t137 -384v-53h-821q8 -152 103 -236t234 -84q191 0 326 158l90 -135q-166 -186 -402 -186q-235 0 -381 146q-146 148 -146 380t138 389q138 158 362 158zM322 1593l264 -229
l264 229l96 -106l-360 -309l-361 309z" />
    <glyph glyph-name="Gcircumflex" unicode="&#x11c;" horiz-adv-x="1411" 
d="M287 702q0 -240 147 -392q147 -151 375 -150q184 0 287 98v289h-330v184h514v-561q-158 -195 -463 -195t-510 209q-205 208 -205 518t206 521t499 211t512 -205l-84 -174q-179 195 -415 195t-385 -154q-148 -154 -148 -394zM799 1776l-264 -230l-97 107l361 309l360 -309
l-96 -107z" />
    <glyph glyph-name="gcircumflex" unicode="&#x11d;" horiz-adv-x="1255" 
d="M948 512q0 170 -90 272t-247 101t-252 -105t-95 -268t95 -268t252 -104t247 100q90 102 90 272zM942 55v84q-51 -74 -145 -119t-213 -45q-222 1 -362 147t-140 389t140 390t360 148q121 -1 214 -47t140 -117v139h176v-969q0 -492 -494 -491q-334 0 -464 252l137 108
q102 -205 342 -205q309 0 309 336zM606 1407l-264 -229l-96 106l360 309l361 -309l-97 -106z" />
    <glyph glyph-name="Gbreve" unicode="&#x11e;" horiz-adv-x="1411" 
d="M287 702q0 -240 147 -392q147 -151 375 -150q184 0 287 98v289h-330v184h514v-561q-158 -195 -463 -195t-510 209q-205 208 -205 518t206 521t499 211t512 -205l-84 -174q-179 195 -415 195t-385 -154q-148 -154 -148 -394zM940 1866h150q0 -142 -78 -228t-213 -86
t-213 86t-78 228h149q-1 -166 141 -166t142 166z" />
    <glyph glyph-name="gbreve" unicode="&#x11f;" horiz-adv-x="1255" 
d="M948 512q0 170 -90 272t-247 101t-252 -105t-95 -268t95 -268t252 -104t247 100q90 102 90 272zM942 55v84q-51 -74 -145 -119t-213 -45q-222 1 -362 147t-140 389t140 390t360 148q121 -1 214 -47t140 -117v139h176v-969q0 -492 -494 -491q-334 0 -464 252l137 108
q102 -205 342 -205q309 0 309 336zM768 1497h150q0 -141 -78 -227t-213 -86t-213 86t-78 227h149q-1 -166 141 -166t142 166z" />
    <glyph glyph-name="Gdotaccent" unicode="&#x120;" horiz-adv-x="1411" 
d="M287 702q0 -240 147 -392q147 -151 375 -150q184 0 287 98v289h-330v184h514v-561q-158 -195 -463 -195t-510 209q-205 208 -205 518t206 521t499 211t512 -205l-84 -174q-179 195 -415 195t-385 -154q-148 -154 -148 -394zM659 1690q0 59 41 99q40 40 98 40t99 -40
t41 -99q0 -60 -41 -100t-98 -40t-99 40q-41 41 -41 100z" />
    <glyph glyph-name="gdotaccent" unicode="&#x121;" horiz-adv-x="1255" 
d="M948 512q0 170 -90 272t-247 101t-252 -105t-95 -268t95 -268t252 -104t247 100q90 102 90 272zM942 55v84q-51 -74 -145 -119t-213 -45q-222 1 -362 147t-140 389t140 390t360 148q121 -1 214 -47t140 -117v139h176v-969q0 -492 -494 -491q-334 0 -464 252l137 108
q102 -205 342 -205q309 0 309 336zM467 1321q0 59 41 99t98 40q56 0 98 -40t42 -99t-42 -99q-40 -40 -98 -40t-98 40q-41 40 -41 99z" />
    <glyph glyph-name="Gcommaaccent" unicode="&#x122;" horiz-adv-x="1411" 
d="M653 -241q0 51 41 95q42 44 102 44t102 -44t42 -88t-22 -83l-166 -297l-95 53l101 176q-47 14 -76 54t-29 90zM287 702q0 -240 147 -392q147 -151 375 -150q184 0 287 98v289h-330v184h514v-561q-158 -195 -463 -195t-510 209q-205 208 -205 518t206 521t499 211
t512 -205l-84 -174q-179 195 -415 195t-385 -154q-148 -154 -148 -394z" />
    <glyph glyph-name="gcommaaccent" unicode="&#x123;" horiz-adv-x="1255" 
d="M948 512q0 170 -90 272t-247 101t-252 -105t-95 -268t95 -268t252 -104t247 100q90 102 90 272zM942 55v84q-51 -74 -145 -119t-213 -45q-222 1 -362 147t-140 389t140 390t360 148q121 -1 214 -47t140 -117v139h176v-969q0 -492 -494 -491q-334 0 -464 252l137 108
q102 -205 342 -205q309 0 309 336zM595 1151q-60 0 -102 44t-42 87t22 84l166 297l94 -53l-100 -176q47 -14 76 -54t29 -91q0 -50 -42 -94q-41 -44 -101 -44z" />
    <glyph glyph-name="Hcircumflex" unicode="&#x124;" horiz-adv-x="1515" 
d="M1352 0h-185v625h-819v-625h-184v1434h184v-625h819v625h185v-1434zM758 1776l-264 -230l-97 107l361 309l360 -309l-96 -107z" />
    <glyph glyph-name="hcircumflex" unicode="&#x125;" horiz-adv-x="1161" 
d="M858 610q0 275 -240 275q-162 0 -239 -121q-59 -94 -60 -287v-477h-176v1434h176v-545q115 160 319 160t302 -119t98 -328v-602h-180v610zM297 1776l-264 -230l-96 107l360 309l360 -309l-96 -107z" />
    <glyph glyph-name="Hbar" unicode="&#x126;" horiz-adv-x="1515" 
d="M348 809h819v182h-819v-182zM61 991v185h103v258h184v-258h819v258h185v-258h102v-185h-102v-991h-185v625h-819v-625h-184v991h-103z" />
    <glyph glyph-name="hbar" unicode="&#x127;" horiz-adv-x="1161" 
d="M858 610q0 275 -240 275q-162 0 -239 -121q-59 -94 -60 -287v-477h-176v1159h-139v158h139v117h176v-117h222v-158h-222v-270q115 160 319 160t302 -119t98 -328v-602h-180v610z" />
    <glyph glyph-name="Itilde" unicode="&#x128;" horiz-adv-x="512" 
d="M348 0h-184v1434h184v-1434zM141 1831q55 0 134 -48t111 -48t108 80l98 -95q-119 -141 -217 -141q-55 0 -134 48t-111 48t-107 -80l-99 95q119 141 217 141z" />
    <glyph glyph-name="itilde" unicode="&#x129;" horiz-adv-x="524" 
d="M174 0v1024h176v-1024h-176zM145 1462q55 0 135 -48t110 -48q32 0 108 80l98 -94q-119 -141 -217 -142q-55 0 -134 48t-111 48t-107 -79l-99 94q119 141 217 141z" />
    <glyph glyph-name="Imacron" unicode="&#x12a;" horiz-adv-x="512" 
d="M348 0h-184v1434h184v-1434zM-51 1622v154h614v-154h-614z" />
    <glyph glyph-name="imacron" unicode="&#x12b;" horiz-adv-x="524" 
d="M174 0v1024h176v-1024h-176zM-45 1253v154h614v-154h-614z" />
    <glyph glyph-name="Ibreve" unicode="&#x12c;" horiz-adv-x="512" 
d="M348 0h-184v1434h184v-1434zM397 1866h150q0 -142 -78 -228t-213 -86t-213 86t-78 228h150q0 -166 141 -166t141 166z" />
    <glyph glyph-name="ibreve" unicode="&#x12d;" horiz-adv-x="524" 
d="M174 0v1024h176v-1024h-176zM403 1497h150q0 -141 -78 -227t-213 -86t-213 86t-78 227h150q0 -166 141 -166t141 166z" />
    <glyph glyph-name="Iogonek" unicode="&#x12e;" horiz-adv-x="512" 
d="M348 0h-80q-61 -80 -61 -148t63 -69q29 0 78 14v-119q-48 -20 -114 -20t-117 46t-51 139t98 200v1391h184v-1434z" />
    <glyph glyph-name="iogonek" unicode="&#x12f;" horiz-adv-x="524" 
d="M350 0h-78q-61 -80 -61 -148t63 -69q29 0 78 14v-119q-48 -20 -114 -20t-117 46t-51 140t104 205v975h176v-1024zM123 1321q0 59 41 99t98 40t98 -40t41 -99t-41 -99t-98 -40t-98 40t-41 99z" />
    <glyph glyph-name="Idotaccent" unicode="&#x130;" horiz-adv-x="512" 
d="M348 0h-184v1434h184v-1434zM117 1690q0 59 40 99t99 40t99 -40t40 -99q0 -60 -40 -100t-99 -40t-99 40t-40 100z" />
    <glyph glyph-name="dotlessi" unicode="&#x131;" horiz-adv-x="524" 
d="M174 0v1024h176v-1024h-176z" />
    <glyph glyph-name="IJ" unicode="&#x132;" horiz-adv-x="1019" 
d="M463 0v184q106 0 168 77q61 77 61 192v981h185v-981q0 -203 -112 -328t-302 -125zM348 0h-184v1434h184v-1434z" />
    <glyph glyph-name="ij" unicode="&#x133;" horiz-adv-x="1067" 
d="M483 -418v172q141 0 193 48q51 48 51 149v1073h176v-1073q1 -193 -95 -281t-325 -88zM174 0v1024h176v-1024h-176zM676 1321q0 59 41 99t98 40t98 -40t41 -99t-41 -99t-98 -40t-98 40t-41 99zM123 1321q0 59 41 99t98 40t98 -40t41 -99t-41 -99t-98 -40t-98 40t-41 99z
" />
    <glyph glyph-name="Jcircumflex" unicode="&#x134;" horiz-adv-x="1007" 
d="M441 184q116 0 177 77t62 192v981h184v-981q0 -203 -112 -328t-301 -125q-107 0 -191 39q-147 68 -205 234q-24 71 -24 145l170 84q0 -142 62 -230t178 -88zM760 1776l-264 -230l-97 107l361 309l360 -309l-96 -107z" />
    <glyph glyph-name="jcircumflex" unicode="&#x135;" horiz-adv-x="542" 
d="M-41 -418v172q141 0 193 48q51 48 51 149v1073h176v-1073q1 -193 -95 -281t-325 -88zM272 1407l-264 -229l-96 106l360 309l361 -309l-96 -106z" />
    <glyph glyph-name="Kcommaaccent" unicode="&#x136;" horiz-adv-x="1325" 
d="M530 -241q0 51 41 95t101 44t103 -44q42 -44 42 -88t-22 -83l-166 -297l-94 53l100 176q-47 14 -76 54t-29 90zM348 0h-184v1434h184v-715l707 715h260l-619 -625l619 -809h-234l-516 676l-217 -219v-457z" />
    <glyph glyph-name="kcommaaccent" unicode="&#x137;" horiz-adv-x="1054" 
d="M383 -241q0 51 41 95t101 44q61 0 103 -44t42 -88t-23 -83l-166 -297l-94 53l100 176q-47 14 -75 54t-29 90zM319 0h-176v1434h176v-891l467 481h248l-434 -453l434 -571h-229l-330 455l-156 -148v-307z" />
    <glyph glyph-name="kgreenlandic" unicode="&#x138;" horiz-adv-x="1054" 
d="M319 0h-176v1024h176v-481l467 481h248l-434 -453l434 -571h-229l-330 455l-156 -148v-307z" />
    <glyph glyph-name="Lacute" unicode="&#x139;" horiz-adv-x="1089" 
d="M164 0v1434h184v-1250h711v-184h-895zM127 1681l434 281l82 -131l-436 -272z" />
    <glyph glyph-name="lacute" unicode="&#x13a;" horiz-adv-x="466" 
d="M324 0h-181v1434h181v-1434zM70 1681l434 281l82 -131l-436 -272z" />
    <glyph glyph-name="Lcommaaccent" unicode="&#x13b;" horiz-adv-x="1089" 
d="M554 -102q60 0 102 -44t42 -88t-22 -83l-166 -297l-94 53l100 176q-47 14 -76 54q-28 40 -28 90q0 51 41 95t101 44zM164 0v1434h184v-1250h711v-184h-895z" />
    <glyph glyph-name="lcommaaccent" unicode="&#x13c;" horiz-adv-x="466" 
d="M90 -241q0 51 41 95t101 44t102 -44t43 -88q0 -44 -23 -83l-166 -297l-94 53l101 176q-47 14 -76 54t-29 90zM324 0h-181v1434h181v-1434z" />
    <glyph glyph-name="Lcaron" unicode="&#x13d;" horiz-adv-x="1089" 
d="M164 0v1434h184v-1250h711v-184h-895zM109 1962l264 -229l264 229l96 -107l-360 -309l-361 309z" />
    <glyph glyph-name="lcaron" unicode="&#x13e;" horiz-adv-x="839" 
d="M324 0h-181v1434h181v-1434zM634 1460q60 0 102 -44t42 -87t-22 -84l-166 -297l-94 53l100 177q-47 14 -76 54q-28 40 -28 90t40 94q42 44 102 44z" />
    <glyph glyph-name="Ldot" unicode="&#x13f;" horiz-adv-x="1089" 
d="M608 801q0 59 40 99t100 40t99 -40q40 -40 40 -99t-40 -99t-99 -40t-100 39q-40 41 -40 100zM164 0v1434h184v-1250h711v-184h-895z" />
    <glyph glyph-name="ldot" unicode="&#x140;" horiz-adv-x="745" 
d="M416 772q0 59 40 99t99 40t99 -40t40 -99t-40 -99t-99 -40t-99 40t-40 99zM324 0h-181v1434h181v-1434z" />
    <glyph glyph-name="Lslash" unicode="&#x141;" horiz-adv-x="1089" 
d="M164 1434h184v-686l387 159l64 -151l-451 -187v-385h711v-184h-895v492l-127 -52l-64 152l191 78v764z" />
    <glyph glyph-name="lslash" unicode="&#x142;" horiz-adv-x="466" 
d="M143 1434h181v-584l211 88l55 -129l-266 -111v-698h-181v625l-192 -80l-55 129l247 102v658z" />
    <glyph glyph-name="Nacute" unicode="&#x143;" horiz-adv-x="1611" 
d="M1448 0h-176l-924 1120v-1120h-184v1434h170l930 -1129v1129h184v-1434zM612 1681l435 281l81 -131l-436 -272z" />
    <glyph glyph-name="nacute" unicode="&#x144;" horiz-adv-x="1181" 
d="M858 0v610q0 133 -60 204t-177 71q-166 0 -242 -121q-59 -94 -60 -287v-477h-176v1024h170v-135q115 160 323 160t305 -120t97 -327v-602h-180zM332 1313l434 280l82 -131l-436 -272z" />
    <glyph glyph-name="Ncommaaccent" unicode="&#x145;" horiz-adv-x="1611" 
d="M816 -102q60 0 102 -44t43 -88q0 -44 -23 -83l-166 -297l-94 53l100 176q-47 14 -76 54q-28 40 -28 90q0 51 41 95t101 44zM1448 0h-176l-924 1120v-1120h-184v1434h170l930 -1129v1129h184v-1434z" />
    <glyph glyph-name="ncommaaccent" unicode="&#x146;" horiz-adv-x="1181" 
d="M446 -241q0 51 41 95t101 44t103 -44q42 -44 42 -88t-22 -83l-166 -297l-94 53l100 176q-47 14 -76 54t-29 90zM858 0v610q0 133 -60 204t-177 71q-166 0 -242 -121q-59 -94 -60 -287v-477h-176v1024h170v-135q115 160 323 160t305 -120t97 -327v-602h-180z" />
    <glyph glyph-name="Ncaron" unicode="&#x147;" horiz-adv-x="1611" 
d="M1448 0h-176l-924 1120v-1120h-184v1434h170l930 -1129v1129h184v-1434zM594 1962l264 -229l264 229l97 -107l-361 -309l-360 309z" />
    <glyph glyph-name="ncaron" unicode="&#x148;" horiz-adv-x="1181" 
d="M858 0v610q0 133 -60 204t-177 71q-166 0 -242 -121q-59 -94 -60 -287v-477h-176v1024h170v-135q115 160 323 160t305 -120t97 -327v-602h-180zM326 1593l264 -229l264 229l96 -106l-360 -309l-361 309z" />
    <glyph glyph-name="napostrophe" unicode="&#x149;" horiz-adv-x="1275" 
d="M952 0v610q0 133 -60 204t-177 71q-166 0 -242 -121q-59 -94 -59 -287v-477h-176v1024h170v-135q114 160 322 160t305 -120t98 -327v-602h-181zM-41 1322q0 50 41 94t101 44q61 0 103 -44t42 -87t-23 -84l-166 -297l-94 53l100 177q-47 14 -75 54t-29 90z" />
    <glyph glyph-name="Eng" unicode="&#x14a;" horiz-adv-x="1611" 
d="M1448 1434v-1487q0 -360 -313 -361q-47 0 -129 11v159q76 -6 106 -6q80 0 118 44t38 153v57l-920 1116v-1120h-184v1434h170l930 -1129v1129h184z" />
    <glyph glyph-name="eng" unicode="&#x14b;" horiz-adv-x="1171" 
d="M848 -63v673q0 133 -58 204t-169 71q-166 0 -242 -121q-59 -94 -60 -287v-477h-176v1024h170v-135q115 160 319 160t300 -120t96 -327v-665q0 -350 -293 -351q-47 0 -129 11v159q78 -6 107 -6q71 0 103 42t32 145z" />
    <glyph glyph-name="Omacron" unicode="&#x14c;" horiz-adv-x="1634" 
d="M817 184q229 0 380 152t151 381t-151 381t-380 152t-380 -152t-151 -381t152 -381q150 -152 379 -152zM818 1434q306 0 510 -205t204 -512t-204 -512t-510 -205t-511 205t-205 512t205 512t511 205zM510 1622v154h614v-154h-614z" />
    <glyph glyph-name="omacron" unicode="&#x14d;" horiz-adv-x="1196" 
d="M598 145q152 -1 253 105t101 262t-101 261t-253 105t-253 -104q-101 -106 -101 -262t101 -262t253 -105zM598 1049q223 0 380 -157t157 -380t-157 -380t-380 -157t-380 157t-157 380t157 380t380 157zM291 1253v154h614v-154h-614z" />
    <glyph glyph-name="Obreve" unicode="&#x14e;" horiz-adv-x="1634" 
d="M817 184q229 0 380 152t151 381t-151 381t-380 152t-380 -152t-151 -381t152 -381q150 -152 379 -152zM818 1434q306 0 510 -205t204 -512t-204 -512t-510 -205t-511 205t-205 512t205 512t511 205zM958 1866h150q0 -142 -78 -228t-213 -86t-213 86t-78 228h150
q0 -166 141 -166t141 166z" />
    <glyph glyph-name="obreve" unicode="&#x14f;" horiz-adv-x="1196" 
d="M598 145q152 -1 253 105t101 262t-101 261t-253 105t-253 -104q-101 -106 -101 -262t101 -262t253 -105zM598 1049q223 0 380 -157t157 -380t-157 -380t-380 -157t-380 157t-157 380t157 380t380 157zM739 1497h150q0 -141 -78 -227t-213 -86t-213 86t-78 227h150
q0 -166 141 -166t141 166z" />
    <glyph glyph-name="Ohungarumlaut" unicode="&#x150;" horiz-adv-x="1634" 
d="M817 184q229 0 380 152t151 381t-151 381t-380 152t-380 -152t-151 -381t152 -381q150 -152 379 -152zM818 1434q306 0 510 -205t204 -512t-204 -512t-510 -205t-511 205t-205 512t205 512t511 205zM805 1604l227 338l125 -84l-231 -334zM492 1624l227 338l125 -84
l-232 -334z" />
    <glyph glyph-name="ohungarumlaut" unicode="&#x151;" horiz-adv-x="1196" 
d="M598 145q152 -1 253 105t101 262t-101 261t-253 105t-253 -104q-101 -106 -101 -262t101 -262t253 -105zM598 1049q223 0 380 -157t157 -380t-157 -380t-380 -157t-380 157t-157 380t157 380t380 157zM578 1235l227 338l125 -84l-232 -334zM264 1255l228 338l124 -84
l-231 -333z" />
    <glyph glyph-name="OE" unicode="&#x152;" horiz-adv-x="2340" 
d="M817 184q229 0 380 152t151 381t-151 381t-380 152t-380 -152t-151 -381t152 -381q150 -152 379 -152zM1348 0v225q-204 -225 -520 -225t-521 205t-205 512t205 512t519 205t522 -226v226h880v-185h-696v-440h696v-184h-696v-441h696v-184h-880z" />
    <glyph glyph-name="oe" unicode="&#x153;" horiz-adv-x="1939" 
d="M238 516q0 -160 98 -266t252 -105q152 -1 245 101t93 266t-93 265t-251 101t-251 -100q-93 -102 -93 -262zM1411 885q-254 0 -295 -289h582q-14 135 -87 212t-200 77zM582 1049q279 0 424 -226q129 225 405 226q217 0 346 -154t131 -387v-53h-784q6 -154 87 -235t203 -81
t192 43q71 43 143 123l96 -143q-88 -92 -179 -139t-235 -48q-279 0 -405 222q-147 -221 -424 -222q-225 0 -373 153q-147 153 -148 384t147 384t374 153z" />
    <glyph glyph-name="Racute" unicode="&#x154;" horiz-adv-x="1357" 
d="M348 651h309q117 0 164 19q86 33 140 108q53 76 53 188t-87 198q-87 85 -212 85h-367v-598zM348 467v-467h-184v1434h551q209 0 346 -138t137 -346q0 -143 -69 -257t-185 -173l342 -520h-239l-299 467h-400zM362 1681l435 281l82 -131l-437 -272z" />
    <glyph glyph-name="racute" unicode="&#x155;" horiz-adv-x="765" 
d="M723 1040v-184q-43 10 -102 10q-162 0 -232 -99t-70 -290v-477h-176v1024h170v-154q100 180 310 181q74 0 96 -11h4zM199 1313l434 280l82 -131l-436 -272z" />
    <glyph glyph-name="Rcommaaccent" unicode="&#x156;" horiz-adv-x="1357" 
d="M557 -241q0 51 41 95t101 44q61 0 103 -44t42 -88t-23 -83l-166 -297l-94 53l101 176q-47 14 -76 54t-29 90zM348 651h309q117 0 164 19q86 33 140 108q53 76 53 188t-87 198q-87 85 -212 85h-367v-598zM348 467v-467h-184v1434h551q209 0 346 -138t137 -346
q0 -143 -69 -257t-185 -173l342 -520h-239l-299 467h-400z" />
    <glyph glyph-name="rcommaaccent" unicode="&#x157;" horiz-adv-x="765" 
d="M141 -241q0 51 41 95q42 44 102 44t102 -44t42 -88t-22 -83l-166 -297l-95 53l101 176q-47 14 -76 54t-29 90zM723 1040v-184q-43 10 -102 10q-162 0 -232 -99t-70 -290v-477h-176v1024h170v-154q100 180 310 181q74 0 96 -11h4z" />
    <glyph glyph-name="Rcaron" unicode="&#x158;" horiz-adv-x="1357" 
d="M348 651h309q117 0 164 19q86 33 140 108q53 76 53 188t-87 198q-87 85 -212 85h-367v-598zM348 467v-467h-184v1434h551q209 0 346 -138t137 -346q0 -143 -69 -257t-185 -173l342 -520h-239l-299 467h-400zM344 1962l264 -229l264 229l97 -107l-361 -309l-360 309z" />
    <glyph glyph-name="rcaron" unicode="&#x159;" horiz-adv-x="765" 
d="M723 1040v-184q-43 10 -102 10q-162 0 -232 -99t-70 -290v-477h-176v1024h170v-154q100 180 310 181q74 0 96 -11h4zM119 1593l264 -229l264 229l96 -106l-360 -309l-360 309z" />
    <glyph glyph-name="Sacute" unicode="&#x15a;" horiz-adv-x="1165" 
d="M575 1249q-101 0 -171 -62t-70 -153q0 -119 130 -175q66 -28 150 -52q182 -53 291 -147t109 -272q0 -176 -130 -282t-294 -106t-286 83t-171 259l162 86q68 -244 283 -244q106 0 179 58t73 142q0 83 -47 134q-46 52 -93 72t-115 40q-67 20 -107 32q-40 14 -109 49
t-109 73t-70 105q-31 66 -30 145q0 178 129 289t296 111t289 -94t168 -253l-174 -71q-33 117 -107 175q-75 58 -176 58zM365 1681l434 281l82 -131l-437 -272z" />
    <glyph glyph-name="sacute" unicode="&#x15b;" horiz-adv-x="956" 
d="M485 139q96 0 160 40q63 40 63 108t-76 101q-58 25 -140 42q-234 50 -318 120q-35 30 -59 78q-25 48 -25 107q0 135 109 224t288 90q279 0 398 -222l-146 -92q-76 150 -260 150q-96 0 -154 -42q-59 -43 -59 -103t56 -87t212 -63t252 -101t96 -203t-112 -224
q-114 -86 -270 -87q-319 0 -428 240l145 92q74 -168 268 -168zM264 1313l434 280l82 -131l-436 -272z" />
    <glyph glyph-name="Scircumflex" unicode="&#x15c;" horiz-adv-x="1165" 
d="M575 1249q-101 0 -171 -62t-70 -153q0 -119 130 -175q66 -28 150 -52q182 -53 291 -147t109 -272q0 -176 -130 -282t-294 -106t-286 83t-171 259l162 86q68 -244 283 -244q106 0 179 58t73 142q0 83 -47 134q-46 52 -93 72t-115 40q-67 20 -107 32q-40 14 -109 49
t-109 73t-70 105q-31 66 -30 145q0 178 129 289t296 111t289 -94t168 -253l-174 -71q-33 117 -107 175q-75 58 -176 58zM610 1776l-264 -230l-96 107l360 309l361 -309l-97 -107z" />
    <glyph glyph-name="scircumflex" unicode="&#x15d;" horiz-adv-x="956" 
d="M485 139q96 0 160 40q63 40 63 108t-76 101q-58 25 -140 42q-234 50 -318 120q-35 30 -59 78q-25 48 -25 107q0 135 109 224t288 90q279 0 398 -222l-146 -92q-76 150 -260 150q-96 0 -154 -42q-59 -43 -59 -103t56 -87t212 -63t252 -101t96 -203t-112 -224
q-114 -86 -270 -87q-319 0 -428 240l145 92q74 -168 268 -168zM500 1407l-264 -229l-97 106l361 309l360 -309l-96 -106z" />
    <glyph glyph-name="Scedilla" unicode="&#x15e;" horiz-adv-x="1165" 
d="M575 1249q-101 0 -171 -62t-70 -153q0 -119 130 -175q66 -28 150 -52q182 -53 291 -147t109 -256q0 -161 -91 -260t-231 -132q72 -90 72 -176t-51 -132t-117 -46t-115 20v119q51 -14 78 -14q66 1 66 67t-62 150q-145 4 -263 87t-167 255l162 86q68 -244 283 -244
q106 0 179 58t73 142q0 83 -47 134q-46 52 -93 72t-115 40q-67 20 -107 32q-40 14 -109 49t-109 73t-70 105q-31 66 -30 145q0 178 129 289t296 111t289 -94t168 -253l-174 -71q-33 117 -107 175q-75 58 -176 58z" />
    <glyph glyph-name="scedilla" unicode="&#x15f;" horiz-adv-x="956" 
d="M485 139q96 0 160 40q63 40 63 108t-76 101q-58 25 -140 42q-234 50 -318 120q-35 30 -59 78q-25 48 -25 107q0 135 109 224t288 90q279 0 398 -222l-146 -92q-76 150 -260 150q-96 0 -154 -42q-59 -43 -59 -103t56 -87t212 -63t252 -101t96 -189t-72 -203
q-73 -79 -196 -107q56 -78 56 -159t-52 -127t-116 -46q-65 0 -115 20v119q51 -14 78 -14q66 0 65 70q0 55 -45 122h-2q-139 -1 -247 59t-164 181l145 92q74 -168 268 -168z" />
    <glyph glyph-name="Scaron" unicode="&#x160;" horiz-adv-x="1165" 
d="M575 1249q-101 0 -171 -62t-70 -153q0 -119 130 -175q66 -28 150 -52q182 -53 291 -147t109 -272q0 -176 -130 -282t-294 -106t-286 83t-171 259l162 86q68 -244 283 -244q106 0 179 58t73 142q0 83 -47 134q-46 52 -93 72t-115 40q-67 20 -107 32q-40 14 -109 49
t-109 73t-70 105q-31 66 -30 145q0 178 129 289t296 111t289 -94t168 -253l-174 -71q-33 117 -107 175q-75 58 -176 58zM346 1962l264 -229l264 229l97 -107l-361 -309l-360 309z" />
    <glyph glyph-name="scaron" unicode="&#x161;" horiz-adv-x="956" 
d="M485 139q96 0 160 40q63 40 63 108t-76 101q-58 25 -140 42q-234 50 -318 120q-35 30 -59 78q-25 48 -25 107q0 135 109 224t288 90q279 0 398 -222l-146 -92q-76 150 -260 150q-96 0 -154 -42q-59 -43 -59 -103t56 -87t212 -63t252 -101t96 -203t-112 -224
q-114 -86 -270 -87q-319 0 -428 240l145 92q74 -168 268 -168zM213 1593l264 -229l264 229l97 -106l-361 -309l-360 309z" />
    <glyph glyph-name="Tcaron" unicode="&#x164;" horiz-adv-x="1333" 
d="M1323 1434v-185h-565v-1249h-185v1249h-563v185h1313zM401 1962l265 -229l264 229l96 -107l-360 -309l-361 309z" />
    <glyph glyph-name="tcaron" unicode="&#x165;" horiz-adv-x="1112" 
d="M233 287v583h-202v154h202v291h177v-291h280v-154h-280v-594q0 -125 116 -124q63 0 174 12v-154q-98 -20 -184 -20q-143 0 -213 68t-70 229zM784 1322q0 50 41 94t101 44t103 -44q42 -44 42 -87t-22 -84l-166 -297l-95 53l101 177q-47 14 -76 54t-29 90z" />
    <glyph glyph-name="Tbar" unicode="&#x166;" horiz-adv-x="1333" 
d="M1323 1434v-185h-565v-389h256v-184h-256v-676h-185v676h-256v184h256v389h-563v185h1313z" />
    <glyph glyph-name="tbar" unicode="&#x167;" horiz-adv-x="772" 
d="M96 610v158h137v102h-202v154h202v291h177v-291h280v-154h-280v-102h202v-158h-202v-334q0 -125 116 -124q63 0 174 12v-154q-98 -20 -184 -20q-143 0 -213 68t-70 229v323h-137z" />
    <glyph glyph-name="Utilde" unicode="&#x168;" horiz-adv-x="1597" 
d="M143 655v779h185v-779q0 -201 135 -336t336 -135t336 135t135 336v779h184v-779q0 -279 -188 -467t-467 -188t-467 188t-189 467zM684 1831q55 0 134 -48t111 -48t107 80l99 -95q-119 -141 -217 -141q-54 0 -134 48t-112 48t-107 -80l-98 95q119 141 217 141z" />
    <glyph glyph-name="utilde" unicode="&#x169;" horiz-adv-x="1167" 
d="M324 1024v-606q0 -133 50 -206t175 -73q166 0 239 121q59 94 60 287v477h176v-1024h-170v147q-121 -172 -336 -172q-375 0 -375 443v606h181zM467 1462q55 0 134 -48t111 -48t107 80l99 -94q-119 -141 -218 -142q-55 0 -134 48q-78 48 -110 48t-108 -79l-98 94
q119 141 217 141z" />
    <glyph glyph-name="Umacron" unicode="&#x16a;" horiz-adv-x="1597" 
d="M143 655v779h185v-779q0 -201 135 -336t336 -135t336 135t135 336v779h184v-779q0 -279 -188 -467t-467 -188t-467 188t-189 467zM492 1622v154h614v-154h-614z" />
    <glyph glyph-name="umacron" unicode="&#x16b;" horiz-adv-x="1167" 
d="M324 1024v-606q0 -133 50 -206t175 -73q166 0 239 121q59 94 60 287v477h176v-1024h-170v147q-121 -172 -336 -172q-375 0 -375 443v606h181zM276 1253v154h615v-154h-615z" />
    <glyph glyph-name="Ubreve" unicode="&#x16c;" horiz-adv-x="1597" 
d="M143 655v779h185v-779q0 -201 135 -336t336 -135t336 135t135 336v779h184v-779q0 -279 -188 -467t-467 -188t-467 188t-189 467zM940 1866h150q0 -142 -78 -228t-213 -86t-213 86t-78 228h149q-1 -166 141 -166t142 166z" />
    <glyph glyph-name="ubreve" unicode="&#x16d;" horiz-adv-x="1167" 
d="M324 1024v-606q0 -133 50 -206t175 -73q166 0 239 121q59 94 60 287v477h176v-1024h-170v147q-121 -172 -336 -172q-375 0 -375 443v606h181zM725 1497h149q0 -141 -78 -227t-212 -86q-135 0 -213 86t-78 227h149q0 -166 142 -166t141 166z" />
    <glyph glyph-name="Uring" unicode="&#x16e;" horiz-adv-x="1597" 
d="M143 655v779h185v-779q0 -201 135 -336t336 -135t336 135t135 336v779h184v-779q0 -279 -188 -467t-467 -188t-467 188t-189 467zM799 1655q49 0 79 32q30 33 30 81t-30 80t-79 32t-79 -32t-30 -81t30 -81t79 -31zM799 1542q-97 0 -161 64t-65 161q-1 98 63 163t162 65
t162 -65t64 -163q0 -97 -64 -161t-161 -64z" />
    <glyph glyph-name="uring" unicode="&#x16f;" horiz-adv-x="1167" 
d="M324 1024v-606q0 -133 50 -206t175 -73q166 0 239 121q59 94 60 287v477h176v-1024h-170v147q-121 -172 -336 -172q-375 0 -375 443v606h181zM584 1286q49 0 79 32t29 81q0 49 -29 81q-30 32 -79 32t-79 -32t-30 -81t30 -81t79 -32zM584 1174q-98 0 -162 63t-64 161
t64 164q64 64 162 64t161 -64t63 -163q0 -97 -62 -161q-64 -64 -162 -64z" />
    <glyph glyph-name="Uhungarumlaut" unicode="&#x170;" horiz-adv-x="1597" 
d="M143 655v779h185v-779q0 -201 135 -336t336 -135t336 135t135 336v779h184v-779q0 -279 -188 -467t-467 -188t-467 188t-189 467zM786 1604l228 338l125 -84l-232 -334zM473 1624l227 338l125 -84l-231 -334z" />
    <glyph glyph-name="uhungarumlaut" unicode="&#x171;" horiz-adv-x="1167" 
d="M324 1024v-606q0 -133 50 -206t175 -73q166 0 239 121q59 94 60 287v477h176v-1024h-170v147q-121 -172 -336 -172q-375 0 -375 443v606h181zM563 1235l228 338l124 -84l-231 -334zM250 1255l227 338l125 -84l-231 -333z" />
    <glyph glyph-name="Uogonek" unicode="&#x172;" horiz-adv-x="1597" 
d="M143 655v779h185v-779q0 -201 135 -336t336 -135t336 135t135 336v779h184v-779q0 -254 -158 -434t-403 -215q-66 -84 -66 -154t64 -69q27 0 78 14v-119q-49 -20 -115 -20t-117 46t-51 131t64 167q-260 16 -434 202t-173 451z" />
    <glyph glyph-name="uogonek" unicode="&#x173;" horiz-adv-x="1167" 
d="M324 1024v-606q0 -133 50 -206t175 -73q166 0 239 121q59 94 60 287v477h176v-963h39q-37 -41 -39 -45v-16h-14q-62 -80 -62 -148t64 -69q29 0 78 14v-119q-49 -20 -115 -20t-117 46t-51 131t61 165h-14v147q-121 -172 -336 -172q-375 0 -375 443v606h181z" />
    <glyph glyph-name="Wcircumflex" unicode="&#x174;" horiz-adv-x="2498" 
d="M1161 1434h176l498 -1119l444 1119h199l-569 -1434h-135l-525 1176l-524 -1176h-135l-570 1434h199l445 -1119zM1249 1776l-264 -230l-96 107l360 309l361 -309l-97 -107z" />
    <glyph glyph-name="wcircumflex" unicode="&#x175;" horiz-adv-x="1773" 
d="M823 1024h125l316 -760l299 760h190l-422 -1024h-135l-309 735l-312 -735h-135l-420 1024h191l297 -760zM887 1407l-264 -229l-97 106l361 309l360 -309l-96 -106z" />
    <glyph glyph-name="Ycircumflex" unicode="&#x176;" horiz-adv-x="1355" 
d="M770 0h-184v604l-576 830h226l442 -639l442 639h226l-576 -830v-604zM678 1776l-264 -230l-97 107l361 309l360 -309l-96 -107z" />
    <glyph glyph-name="ycircumflex" unicode="&#x177;" horiz-adv-x="1075" 
d="M20 1024h213l326 -680l320 680h186l-662 -1434h-190l252 549zM537 1407l-265 -229l-96 106l361 309l360 -309l-96 -106z" />
    <glyph glyph-name="Ydieresis" unicode="&#x178;" horiz-adv-x="1355" 
d="M770 0h-184v604l-576 830h226l442 -639l442 639h226l-576 -830v-604zM776 1690q0 59 40 99t99 40t99 -40t41 -99q0 -60 -40 -100q-39 -40 -99 -40t-100 40t-40 100zM301 1690q0 59 40 99t99 40q60 0 100 -40t40 -99q0 -60 -40 -100t-100 -40t-99 40q-40 40 -40 100z" />
    <glyph glyph-name="Zacute" unicode="&#x179;" horiz-adv-x="1355" 
d="M1253 184v-184h-1151v141l877 1108h-877v185h1151v-142l-876 -1108h876zM459 1681l434 281l82 -131l-436 -272z" />
    <glyph glyph-name="zacute" unicode="&#x17a;" horiz-adv-x="929" 
d="M868 164v-164h-807v158l570 702h-553v164h770v-158l-569 -702h589zM248 1313l434 280l82 -131l-436 -272z" />
    <glyph glyph-name="Zdotaccent" unicode="&#x17b;" horiz-adv-x="1355" 
d="M1253 184v-184h-1151v141l877 1108h-877v185h1151v-142l-876 -1108h876zM565 1690q0 59 41 99q40 40 98 40t99 -40t41 -99q0 -60 -41 -100t-98 -40t-99 40q-41 41 -41 100z" />
    <glyph glyph-name="zdotaccent" unicode="&#x17c;" horiz-adv-x="929" 
d="M868 164v-164h-807v158l570 702h-553v164h770v-158l-569 -702h589zM336 1321q0 59 41 99t98 40t98 -40t41 -99t-41 -99t-98 -40t-98 40t-41 99z" />
    <glyph glyph-name="Zcaron" unicode="&#x17d;" horiz-adv-x="1355" 
d="M1253 184v-184h-1151v141l877 1108h-877v185h1151v-142l-876 -1108h876zM440 1962l265 -229l264 229l96 -107l-360 -309l-361 309z" />
    <glyph glyph-name="zcaron" unicode="&#x17e;" horiz-adv-x="929" 
d="M868 164v-164h-807v158l570 702h-553v164h770v-158l-569 -702h589zM221 1593l264 -229l265 229l96 -106l-361 -309l-360 309z" />
    <glyph glyph-name="longs" unicode="&#x17f;" horiz-adv-x="737" 
d="M31 870v154h188v57q0 371 330 371q66 0 158 -14v-160q-72 10 -150 10t-120 -45t-42 -162v-1081h-176v870h-188z" />
    <glyph glyph-name="florin" unicode="&#x192;" horiz-adv-x="737" 
d="M31 870v154h188v57q0 371 330 371q66 0 158 -14v-160q-72 10 -150 10t-120 -45t-42 -162v-57h297v-154h-297v-936q0 -350 -289 -350q-47 0 -129 10v160q80 -6 107 -6q70 0 102 41t33 145v936h-188z" />
    <glyph glyph-name="Aringacute" unicode="&#x1fa;" horiz-adv-x="1568" 
d="M784 1210l-358 -774h717zM1548 0h-202l-115 252h-893l-115 -252h-203l668 1434h193zM784 1655q49 0 79 32q30 33 30 81t-30 80t-79 32q-48 0 -78 -32t-30 -81t30 -81t78 -31zM784 1542q-98 0 -161 64t-64 161q-1 98 63 163t162 65t162 -65t64 -163q0 -97 -64 -161
t-162 -64zM539 2161l434 280l82 -131l-437 -272z" />
    <glyph glyph-name="aringacute" unicode="&#x1fb;" horiz-adv-x="1085" 
d="M272 293q0 -68 50 -108t162 -40t202 84t90 185v75l-342 -40q-162 -20 -162 -156zM776 717v22q0 68 -60 110t-163 42q-231 0 -264 -186l-160 86q66 258 408 258q209 -1 312 -101t103 -282v-666h-176v145q-49 -77 -137 -121t-193 -44q-166 0 -260 88t-94 227t88 222t223 95
l297 29q36 1 56 23t20 53zM543 1286q49 0 79 32t29 81q0 49 -29 81q-30 32 -79 32t-79 -32t-30 -81t30 -81t79 -32zM543 1174q-98 0 -162 63q-63 63 -63 161t62 164q64 64 162 64t163 -64q63 -65 63 -163t-63 -162q-64 -63 -162 -63zM285 1800l434 281l82 -131l-436 -273z
" />
    <glyph glyph-name="AEacute" unicode="&#x1fc;" horiz-adv-x="2033" 
d="M1040 436v664l-479 -664h479zM1921 0h-883v252h-612l-178 -252h-238l1039 1434h872v-185h-696v-440h696v-184h-696v-441h696v-184zM1276 1681l434 281l82 -131l-436 -272z" />
    <glyph glyph-name="aeacute" unicode="&#x1fd;" horiz-adv-x="1771" 
d="M272 288q0 -64 56 -103q56 -40 166 -40q112 0 197 80t85 189v73l-340 -38q-80 -9 -122 -53t-42 -108zM1243 885q-125 0 -200 -76t-93 -209h580q-10 129 -86 207t-201 78zM92 296q0 138 91 220t223 94l294 29q35 2 56 25q20 23 20 51v24q0 70 -59 111t-166 41
q-231 0 -264 -189l-160 86q68 260 405 261q262 0 357 -164q123 164 346 164t353 -152t132 -385v-53h-784q4 -147 90 -233t217 -87q187 0 320 166l94 -143q-80 -92 -174 -139t-240 -48q-258 0 -393 213q-34 -46 -60 -74t-73 -64q-91 -70 -259 -70q-167 0 -267 89
q-99 89 -99 227zM645 1313l434 280l82 -131l-436 -272z" />
    <glyph glyph-name="Oslashacute" unicode="&#x1fe;" horiz-adv-x="1634" 
d="M817 184q229 0 380 152t151 372t-131 367l-689 -811q127 -80 289 -80zM817 1249q-229 1 -380 -151t-151 -374t132 -368l690 813q-127 80 -291 80zM102 721q0 303 205 508t510 205q231 0 412 -123l131 155l108 -94l-131 -153q195 -205 195 -507t-204 -507t-511 -205
q-231 0 -409 121l-132 -154l-110 92l131 154q-195 205 -195 508zM571 1681l435 281l81 -131l-436 -272z" />
    <glyph glyph-name="oslashacute" unicode="&#x1ff;" horiz-adv-x="1196" 
d="M883 735l-463 -542q80 -45 178 -46q152 -1 253 105t101 262q1 121 -69 221zM598 881q-152 1 -253 -105t-101 -250t69 -237l463 545q-84 47 -178 47zM598 1051q160 0 291 -86l78 92l108 -94l-78 -93q137 -150 137 -364t-156 -372q-157 -157 -380 -157q-160 0 -289 84
l-80 -94l-110 92l80 95q-137 154 -137 368t156 372q157 157 380 157zM340 1313l434 280l82 -131l-436 -272z" />
    <glyph glyph-name="Scommaaccent" unicode="&#x218;" horiz-adv-x="1165" 
d="M420 -241q0 51 41 95t101 44t102 -44t43 -88q0 -44 -23 -83l-166 -297l-94 53l100 176q-48 14 -76 54t-28 90zM575 1249q-101 0 -171 -62t-70 -153q0 -119 130 -175q66 -28 150 -52q182 -53 291 -147t109 -272q0 -176 -130 -282t-294 -106t-286 83t-171 259l162 86
q68 -244 283 -244q106 0 179 58t73 142q0 83 -47 134q-46 52 -93 72t-115 40q-67 20 -107 32q-40 14 -109 49t-109 73t-70 105q-31 66 -30 145q0 178 129 289t296 111t289 -94t168 -253l-174 -71q-33 117 -107 175q-75 58 -176 58z" />
    <glyph glyph-name="scommaaccent" unicode="&#x219;" horiz-adv-x="956" 
d="M476 -102q60 0 102 -44t43 -88q0 -44 -23 -83l-166 -297l-94 53l100 176q-47 14 -76 54q-28 40 -28 90q0 51 41 95t101 44zM485 139q96 0 160 40q63 40 63 108t-76 101q-58 25 -140 42q-234 50 -318 120q-35 30 -59 78q-25 48 -25 107q0 135 109 224t288 90
q279 0 398 -222l-146 -92q-76 150 -260 150q-96 0 -154 -42q-59 -43 -59 -103t56 -87t212 -63t252 -101t96 -203t-112 -224q-114 -86 -270 -87q-319 0 -428 240l145 92q74 -168 268 -168z" />
    <glyph glyph-name="uni021A" unicode="&#x21a;" horiz-adv-x="1333" 
d="M522 -241q0 51 41 95t101 44t103 -44q42 -44 42 -88t-23 -83l-165 -297l-95 53l101 176q-47 14 -76 54t-29 90zM1323 1434v-185h-565v-1249h-185v1249h-563v185h1313z" />
    <glyph glyph-name="uni021B" unicode="&#x21b;" horiz-adv-x="772" 
d="M315 -241q0 51 41 95q42 44 102 44t102 -44t42 -88t-22 -83l-166 -297l-95 53l101 176q-47 14 -76 54t-29 90zM233 287v583h-202v154h202v291h177v-291h280v-154h-280v-594q0 -125 116 -124q63 0 174 12v-154q-98 -20 -184 -20q-143 0 -213 68t-70 229z" />
    <glyph glyph-name="hsuperior" unicode="&#x2b0;" horiz-adv-x="798" 
d="M545 594v369q0 127 -125 127q-88 0 -123 -54t-35 -155v-287h-139v860h139v-305q80 74 190 74t172 -72t62 -195v-362h-141z" />
    <glyph glyph-name="jsuperior" unicode="&#x2b2;" horiz-adv-x="430" 
d="M10 348v133q84 0 115 24t31 70v633h141v-633q1 -119 -65 -173t-222 -54zM125 1370q0 41 29 70q30 28 72 28t72 -28t30 -70q0 -41 -30 -70q-30 -28 -73 -28t-71 28t-29 70z" />
    <glyph glyph-name="wsuperior" unicode="&#x2b7;" horiz-adv-x="1167" 
d="M584 975l-174 -381h-103l-266 614h154l163 -393l177 393h96l176 -393l166 393h153l-266 -614h-104z" />
    <glyph glyph-name="ysuperior" unicode="&#x2b8;" horiz-adv-x="759" 
d="M41 1208h168l182 -354l178 354h150l-418 -860h-154l166 344z" />
    <glyph glyph-name="afii57929" unicode="&#x2bc;" horiz-adv-x="438" 
d="M88 1310q0 54 45 102t113 48t110 -46t41 -94q0 -48 -24 -91l-209 -375l-103 57l140 246q-49 14 -81 57q-32 42 -32 96z" />
    <glyph glyph-name="circumflex" unicode="&#x2c6;" horiz-adv-x="761" 
d="M381 1407l-264 -229l-97 106l361 309l360 -309l-96 -106z" />
    <glyph glyph-name="caron" unicode="&#x2c7;" horiz-adv-x="761" 
d="M117 1593l264 -229l264 229l96 -106l-360 -309l-361 309z" />
    <glyph glyph-name="breve" unicode="&#x2d8;" horiz-adv-x="622" 
d="M453 1497h149q0 -141 -78 -227t-213 -86t-213 86t-78 227h150q0 -166 142 -166t141 166z" />
    <glyph glyph-name="dotaccent" unicode="&#x2d9;" horiz-adv-x="319" 
d="M20 1321q0 59 41 99t99 40t98 -40q41 -40 41 -99t-41 -99t-98 -40t-99 40q-41 40 -41 99z" />
    <glyph glyph-name="ring" unicode="&#x2da;" horiz-adv-x="491" 
d="M246 1286q49 0 79 32t29 81q0 49 -29 81q-30 32 -79 32t-79 -32t-30 -81t30 -81t79 -32zM246 1174q-98 0 -162 63t-64 161t64 164q64 64 162 64t162 -64q63 -65 63 -163t-63 -162q-64 -63 -162 -63z" />
    <glyph glyph-name="ogonek" unicode="&#x2db;" horiz-adv-x="323" 
d="M225 -217q29 0 78 14v-119q-49 -20 -115 -20t-116 46q-52 46 -52 141t115 216h141q-114 -121 -114 -199t63 -79z" />
    <glyph glyph-name="tilde" unicode="&#x2dc;" horiz-adv-x="708" 
d="M238 1462q55 0 134 -48q78 -48 110 -48t108 80l98 -94q-119 -141 -217 -142q-55 0 -134 48t-111 48t-107 -79l-99 94q119 141 218 141z" />
    <glyph glyph-name="hungarumlaut" unicode="&#x2dd;" horiz-adv-x="706" 
d="M334 1235l227 338l125 -84l-231 -334zM20 1255l228 338l125 -84l-232 -333z" />
    <glyph glyph-name="xsuperior" unicode="&#x2e3;" horiz-adv-x="765" 
d="M469 901l256 -307h-176l-166 203l-166 -203h-176l256 307l-256 307h176l166 -202l166 202h176z" />
    <glyph glyph-name="commaaccentcomb" unicode="&#x326;" horiz-adv-x="0" 
d="M20 -241q0 51 41 95t101 44t103 -44q42 -44 42 -88t-22 -83l-166 -297l-94 53l100 176q-47 14 -76 54t-29 90z" />
    <glyph glyph-name="Delta" unicode="&#x394;" 
d="M293 133h852l-426 1059zM1401 0h-1368l633 1526h102z" />
    <glyph glyph-name="Omega" unicode="&#x3a9;" horiz-adv-x="1515" 
d="M860 0v164q420 227 420 581q0 229 -148 379t-374 150t-374 -150t-148 -379q0 -354 419 -581v-164h-585v164h266q-295 225 -295 581q0 313 204 513t513 200t513 -200t204 -513q0 -354 -297 -581h268v-164h-586z" />
    <glyph glyph-name="mu" unicode="&#x3bc;" 
d="M457 1024v-606q0 -133 50 -206t175 -73q166 0 240 121q59 94 59 287v477h176v-1024h-170v147q-119 -172 -336 -172q-121 0 -200 45v-430h-175v1434h181z" />
    <glyph glyph-name="pi" unicode="&#x3c0;" 
d="M1282 840h-182v-840h-180v840h-306l-178 -840h-188l178 840q-158 0 -276 -29v152q119 61 286 61h846v-184z" />
    <glyph glyph-name="Wgrave" unicode="&#x1e80;" horiz-adv-x="2498" 
d="M1161 1434h176l498 -1119l444 1119h199l-569 -1434h-135l-525 1176l-524 -1176h-135l-570 1434h199l445 -1119zM1079 1962l434 -281l-79 -122l-437 272z" />
    <glyph glyph-name="wgrave" unicode="&#x1e81;" horiz-adv-x="1773" 
d="M823 1024h125l316 -760l299 760h190l-422 -1024h-135l-309 735l-312 -735h-135l-420 1024h191l297 -760zM711 1593l434 -280l-80 -123l-436 272z" />
    <glyph glyph-name="Wacute" unicode="&#x1e82;" horiz-adv-x="2498" 
d="M1161 1434h176l498 -1119l444 1119h199l-569 -1434h-135l-525 1176l-524 -1176h-135l-570 1434h199l445 -1119zM1004 1681l434 281l82 -131l-437 -272z" />
    <glyph glyph-name="wacute" unicode="&#x1e83;" horiz-adv-x="1773" 
d="M823 1024h125l316 -760l299 760h190l-422 -1024h-135l-309 735l-312 -735h-135l-420 1024h191l297 -760zM629 1313l434 280l82 -131l-436 -272z" />
    <glyph glyph-name="Wdieresis" unicode="&#x1e84;" horiz-adv-x="2498" 
d="M1161 1434h176l498 -1119l444 1119h199l-569 -1434h-135l-525 1176l-524 -1176h-135l-570 1434h199l445 -1119zM1348 1690q0 59 41 99t98 40t98 -40t41 -99q0 -60 -41 -100t-98 -40t-98 40t-41 100zM872 1690q0 59 41 99t99 40t98 -40q41 -40 41 -99q0 -60 -41 -100
t-98 -40t-99 40q-41 41 -41 100z" />
    <glyph glyph-name="wdieresis" unicode="&#x1e85;" horiz-adv-x="1773" 
d="M823 1024h125l316 -760l299 760h190l-422 -1024h-135l-309 735l-312 -735h-135l-420 1024h191l297 -760zM985 1321q0 59 40 99t99 40q60 0 100 -40t40 -99t-40 -99t-100 -40t-99 40q-40 40 -40 99zM510 1321q0 59 40 99t99 40t99 -40t40 -99t-40 -99t-98 -40
q-60 0 -100 40t-40 99z" />
    <glyph glyph-name="Ygrave" unicode="&#x1ef2;" horiz-adv-x="1355" 
d="M770 0h-184v604l-576 830h226l442 -639l442 639h226l-576 -830v-604zM508 1962l434 -281l-80 -122l-436 272z" />
    <glyph glyph-name="ygrave" unicode="&#x1ef3;" horiz-adv-x="1075" 
d="M20 1024h213l326 -680l320 680h186l-662 -1434h-190l252 549zM360 1593l435 -280l-80 -123l-436 272z" />
    <glyph glyph-name="endash" unicode="&#x2013;" horiz-adv-x="1900" 
d="M143 541v184h1614v-184h-1614z" />
    <glyph glyph-name="emdash" unicode="&#x2014;" horiz-adv-x="2822" 
d="M143 541v184h2536v-184h-2536z" />
    <glyph glyph-name="quoteleft" unicode="&#x2018;" horiz-adv-x="438" 
d="M371 1004q0 -54 -45 -102t-113 -48t-110 46t-42 94t25 91l209 375l102 -57l-139 -246q49 -14 81 -57t32 -96z" />
    <glyph glyph-name="quoteright" unicode="&#x2019;" horiz-adv-x="438" 
d="M88 1310q0 54 45 102t113 48t110 -46t41 -94q0 -48 -24 -91l-209 -375l-103 57l140 246q-49 14 -81 57q-32 42 -32 96z" />
    <glyph glyph-name="quotesinglbase" unicode="&#x201a;" horiz-adv-x="602" 
d="M170 153q0 53 45 101t105 49q60 0 110 -49q49 -48 49 -94t-24 -88l-209 -375l-103 57l140 246q-49 14 -81 57t-32 96z" />
    <glyph glyph-name="quotedblleft" unicode="&#x201c;" horiz-adv-x="1032" 
d="M883 1004q0 -54 -45 -102q-46 -48 -106 -48t-109 48q-85 83 -25 183l209 375l102 -57l-139 -246q49 -14 81 -57t32 -96zM453 1004q0 -54 -45 -102q-46 -48 -106 -48t-109 48q-85 83 -25 183l209 375l102 -57l-139 -246q49 -14 81 -57t32 -96z" />
    <glyph glyph-name="quotedblright" unicode="&#x201d;" horiz-adv-x="1032" 
d="M730 1460q60 0 110 -48t49 -94q0 -46 -25 -89l-209 -375l-102 57l139 246q-49 14 -81 57q-31 42 -31 96t45 102t105 48zM300 1460q60 0 110 -48t49 -94q0 -46 -25 -89l-209 -375l-102 57l139 246q-49 14 -81 57q-31 42 -31 96t45 102t105 48z" />
    <glyph glyph-name="quotedblbase" unicode="&#x201e;" horiz-adv-x="1032" 
d="M600 153q0 53 45 101t105 49q60 0 110 -49q49 -48 49 -94t-24 -88l-209 -375l-103 57l140 246q-49 14 -81 57t-32 96zM170 153q0 53 45 101t105 49q60 0 110 -49q49 -48 49 -94t-24 -88l-209 -375l-103 57l140 246q-49 14 -81 57t-32 96z" />
    <glyph glyph-name="dagger" unicode="&#x2020;" horiz-adv-x="997" 
d="M31 860v164h389v494h158v-494h389v-164h-389v-1053h-158v1053h-389z" />
    <glyph glyph-name="daggerdbl" unicode="&#x2021;" horiz-adv-x="997" 
d="M31 922v163h389v433h158v-433h389v-163h-389v-457h389v-164h-389v-494h-158v494h-389v164h389v457h-389z" />
    <glyph glyph-name="bullet" unicode="&#x2022;" horiz-adv-x="892" 
d="M193 655q0 109 72 182q73 73 181 73t182 -74q72 -72 72 -181t-72 -181t-182 -73q-109 1 -181 73t-72 181z" />
    <glyph glyph-name="ellipsis" unicode="&#x2026;" horiz-adv-x="1984" 
d="M1458 160q0 68 46 114t114 48q68 0 115 -48t47 -114q0 -68 -47 -114t-115 -46t-114 46t-46 114zM831 160q1 68 47 114t114 48q68 0 114 -48q47 -48 47 -114q0 -68 -47 -114t-115 -46t-114 46t-46 114zM205 160q0 68 46 114t114 48q69 0 115 -48t46 -114q0 -68 -47 -114
t-115 -46t-113 46q-46 46 -46 114z" />
    <glyph glyph-name="perthousand" unicode="&#x2030;" horiz-adv-x="2240" 
d="M1671 289q0 -76 52 -128t128 -52t128 52t53 128q0 76 -52 128t-129 52q-76 0 -128 -52t-52 -128zM899 289q0 -76 52 -128t128 -52t128 52t53 128q0 76 -52 128t-129 52q-76 0 -128 -52t-52 -128zM1536 289q0 131 92 224t223 93t225 -93t93 -224q0 -131 -93 -223
q-92 -92 -224 -92t-224 92t-92 223zM764 289q0 131 92 224t223 93t225 -93t93 -224q0 -131 -93 -223q-92 -92 -224 -92t-224 92t-92 223zM207 1143q0 -76 52 -128t128 -52t128 52t52 128t-52 128t-128 52t-128 -52t-52 -128zM252 0l-102 84l1071 1350l102 -82zM72 1143
q0 131 92 224t223 93t224 -93t93 -224t-92 -223q-94 -92 -225 -92t-223 92t-92 223z" />
    <glyph glyph-name="guilsinglleft" unicode="&#x2039;" horiz-adv-x="761" 
d="M578 186l-117 -104l-379 430l379 430l117 -106l-293 -324z" />
    <glyph glyph-name="guilsinglright" unicode="&#x203a;" horiz-adv-x="761" 
d="M301 82l-117 104l293 326l-293 324l117 106l379 -430z" />
    <glyph glyph-name="fraction" unicode="&#x2044;" horiz-adv-x="272" 
d="M-348 0l-103 84l1072 1350l102 -82z" />
    <glyph glyph-name="zerosuperior" unicode="&#x2070;" horiz-adv-x="1036" 
d="M518 903q115 0 190 78t74 205q0 127 -74 206q-75 78 -190 78q-116 0 -190 -78t-74 -206q0 -127 74 -205t190 -78zM518 1618q174 0 293 -122t119 -309t-119 -308t-293 -121t-293 121t-119 308t119 309t293 122z" />
    <glyph glyph-name="uni2071" unicode="&#x2071;" horiz-adv-x="407" 
d="M133 594v614h141v-614h-141zM102 1370q0 41 30 70q30 28 73 28t71 -28t29 -70q0 -41 -29 -70q-30 -28 -72 -28t-72 28t-30 70z" />
    <glyph glyph-name="foursuperior" unicode="&#x2074;" horiz-adv-x="946" 
d="M541 1069v291l-258 -291h258zM688 1069h176v-145h-176v-166h-147v166h-471v125l497 569h121v-549z" />
    <glyph glyph-name="fivesuperior" unicode="&#x2075;" horiz-adv-x="827" 
d="M545 1051q-1 147 -177 147q-90 0 -194 -49v469h520v-145h-372v-134q55 6 71 7q135 0 218 -83t83 -217t-92 -211t-230 -77t-253 94l76 129q96 -78 177 -78t127 39t46 109z" />
    <glyph glyph-name="sixsuperior" unicode="&#x2076;" horiz-adv-x="823" 
d="M270 1046q0 -66 43 -104q43 -39 109 -39t106 40t41 106q0 65 -40 103q-39 38 -107 38t-110 -39t-42 -105zM717 1050q0 -128 -84 -210q-83 -82 -225 -82t-230 121q-59 82 -59 256q0 235 91 359t249 124q117 0 217 -78l-80 -119q-74 51 -142 51t-116 -53q-41 -43 -51 -114
q68 31 133 30q131 0 214 -79q83 -78 83 -206z" />
    <glyph glyph-name="sevensuperior" unicode="&#x2077;" horiz-adv-x="763" 
d="M682 1618v-123l-391 -737h-168l381 715h-422v145h600z" />
    <glyph glyph-name="eightsuperior" unicode="&#x2078;" horiz-adv-x="786" 
d="M393 1116q-53 0 -90 -29t-37 -77t35 -78q35 -29 91 -29t91 29t35 78q0 50 -36 78t-89 28zM393 1262q53 0 89 28t36 77q0 48 -35 77t-91 29t-91 -29t-35 -77q0 -49 37 -77t90 -28zM119 1004q0 112 86 186q-86 70 -86 182t77 178q78 68 198 68t197 -68t77 -180t-86 -180
q86 -74 86 -186t-76 -179t-199 -67t-199 68q-76 66 -75 178z" />
    <glyph glyph-name="ninesuperior" unicode="&#x2079;" horiz-adv-x="829" 
d="M254 1327q0 -65 41 -103t109 -38t110 39t41 105q0 66 -43 104q-42 39 -108 39t-108 -40t-42 -106zM371 903q76 0 120 47t48 121q-63 -31 -133 -31q-133 0 -217 79q-83 79 -83 206t86 210t226 83t227 -121q59 -84 60 -256q1 -250 -87 -367t-247 -116q-119 0 -230 61
l62 133q92 -49 168 -49z" />
    <glyph glyph-name="plussuperior" unicode="&#x207a;" horiz-adv-x="841" 
d="M94 1069v145h252v244h150v-244h252v-145h-252v-244h-150v244h-252z" />
    <glyph glyph-name="minussuperior" unicode="&#x207b;" horiz-adv-x="770" 
d="M82 1073v146h586v-146h-586z" />
    <glyph glyph-name="equalsuperior" unicode="&#x207c;" horiz-adv-x="806" 
d="M713 1059v-146h-619v146h619zM713 1309v-146h-619v146h619z" />
    <glyph glyph-name="parenleftsuperior" unicode="&#x207d;" horiz-adv-x="497" 
d="M82 1138q0 337 244 574l96 -84q-203 -214 -203 -488t203 -493l-96 -86q-244 240 -244 577z" />
    <glyph glyph-name="parenrightsuperior" unicode="&#x207e;" horiz-adv-x="497" 
d="M416 1138q0 -334 -246 -577l-94 86q201 219 201 491t-201 490l94 84q246 -240 246 -574z" />
    <glyph glyph-name="nsuperior" unicode="&#x207f;" horiz-adv-x="813" 
d="M549 594v356q0 139 -127 140q-74 0 -117 -46t-43 -163v-287h-139v614h139v-59q78 74 194 74t174 -74q60 -74 60 -197v-358h-141z" />
    <glyph glyph-name="zeroinferior" unicode="&#x2080;" horiz-adv-x="1036" 
d="M518 12q115 0 190 78t74 205q0 127 -74 206q-75 79 -190 79q-116 0 -190 -79t-74 -206t74 -205t190 -78zM518 727q174 0 293 -122t119 -309t-119 -308t-293 -121t-293 121t-119 308t119 309t293 122z" />
    <glyph glyph-name="oneinferior" unicode="&#x2081;" horiz-adv-x="671" 
d="M514 727v-860h-147v641l-181 -172l-104 104l299 287h133z" />
    <glyph glyph-name="twoinferior" unicode="&#x2082;" horiz-adv-x="851" 
d="M428 727q112 0 188 -73q78 -72 78 -186t-90 -210l-233 -246h313v-145h-543v121l359 372q45 50 45 104t-37 86t-88 32q-126 -1 -187 -136l-114 99q43 80 120 131t189 51z" />
    <glyph glyph-name="threeinferior" unicode="&#x2083;" horiz-adv-x="800" 
d="M342 373h49q57 1 92 27t35 75t-32 78t-80 29q-117 0 -162 -131l-119 98q31 76 103 127t180 51t184 -70t76 -173t-84 -183q84 -67 84 -183t-73 -184t-182 -68t-185 52q-75 51 -109 137l131 99q43 -141 151 -142q51 0 84 29t33 79t-35 79t-92 28h-49v146z" />
    <glyph glyph-name="fourinferior" unicode="&#x2084;" horiz-adv-x="946" 
d="M541 178v291l-258 -291h258zM688 178h176v-145h-176v-166h-147v166h-471v125l497 569h121v-549z" />
    <glyph glyph-name="fiveinferior" unicode="&#x2085;" horiz-adv-x="827" 
d="M545 160q-1 147 -177 147q-90 0 -194 -49v469h520v-145h-372v-133q55 6 71 6q135 0 218 -83t83 -217t-92 -211t-230 -77t-253 94l76 129q96 -78 177 -78t127 39t46 109z" />
    <glyph glyph-name="sixinferior" unicode="&#x2086;" horiz-adv-x="823" 
d="M270 156q0 -66 43 -105t109 -39t106 40t41 106q0 66 -40 104q-39 38 -107 37q-68 0 -110 -39q-42 -38 -42 -104zM717 159q0 -128 -84 -210q-83 -82 -225 -82t-230 121q-59 82 -59 256q0 236 91 360t249 123q117 0 217 -78l-80 -119q-74 52 -142 52t-116 -54
q-41 -43 -51 -114q68 31 133 30q131 0 214 -78t83 -207z" />
    <glyph glyph-name="seveninferior" unicode="&#x2087;" horiz-adv-x="763" 
d="M682 727v-123l-391 -737h-168l381 715h-422v145h600z" />
    <glyph glyph-name="eightinferior" unicode="&#x2088;" horiz-adv-x="786" 
d="M393 225q-53 -1 -90 -29t-37 -77t35 -78t91 -29t91 29t35 78t-36 77t-89 29zM393 371q53 1 89 29t36 76t-35 77t-91 29t-91 -29t-35 -77t37 -76t90 -29zM119 114q0 112 86 185q-86 69 -86 181t77 180q78 68 198 67q120 0 197 -68q77 -67 77 -179t-86 -181q86 -73 86 -185
t-76 -180t-199 -68t-199 68t-75 180z" />
    <glyph glyph-name="nineinferior" unicode="&#x2089;" horiz-adv-x="829" 
d="M254 436q0 -66 41 -104t109 -37q68 0 110 39q42 38 41 104q0 66 -43 105q-42 39 -108 39t-108 -40t-42 -106zM371 12q76 0 120 47t48 121q-63 -31 -133 -30q-133 0 -217 78q-83 79 -83 206t86 210t226 83t227 -121q59 -84 60 -256q1 -250 -87 -366t-247 -117
q-119 0 -230 61l62 133q92 -49 168 -49z" />
    <glyph glyph-name="parenleftinferior" unicode="&#x208d;" horiz-adv-x="497" 
d="M82 247q0 337 244 574l96 -84q-203 -215 -203 -489t203 -492l-96 -86q-244 240 -244 577z" />
    <glyph glyph-name="parenrightinferior" unicode="&#x208e;" horiz-adv-x="497" 
d="M416 246q0 -334 -246 -576l-94 86q201 220 201 492t-201 489l94 84q246 -241 246 -575z" />
    <glyph glyph-name="Euro" unicode="&#x20ac;" horiz-adv-x="1462" 
d="M475 712q0 -48 4 -73h633l-65 -143h-535q51 -144 165 -228t271 -84q104 0 232 64l30 -189q-154 -59 -262 -59q-225 0 -396 137t-233 359h-217l66 143h127q-4 49 -4 85t2 58h-170l65 144h129q59 227 231 368q172 142 410 142q236 0 443 -164l-78 -174q-158 154 -375 153
q-160 0 -276 -87t-166 -238h741l-65 -144h-705q-2 -22 -2 -70z" />
    <glyph glyph-name="afii61289" unicode="&#x2113;" horiz-adv-x="985" 
d="M369 1133v-410q236 291 235 539q0 168 -100 168q-135 0 -135 -297zM215 328v39q-70 -53 -104 -78l-78 112q98 78 182 156v563q0 238 81 346t206 107q126 0 192 -85q66 -86 66 -248t-109 -362t-282 -376v-127q0 -113 43 -179t120 -65q76 0 120 45t91 137l119 -73
q-66 -129 -144 -197t-201 -68q-124 1 -213 95t-89 258z" />
    <glyph glyph-name="afii61352" unicode="&#x2116;" horiz-adv-x="2889" 
d="M1704 0v164h846v-164h-846zM2126 528q129 0 214 89t85 221t-85 221q-85 90 -214 90t-214 -90t-85 -221q0 -130 85 -220t214 -90zM2127 1313q198 0 336 -138t138 -336t-138 -336t-336 -138t-337 138t-139 336t139 336t337 138zM1448 0h-176l-924 1120v-1120h-184v1434h170
l930 -1129v1129h184v-1434z" />
    <glyph glyph-name="trademark" unicode="&#x2122;" horiz-adv-x="1968" 
d="M1026 637h-143v797h137l346 -605l340 605h139v-797h-143v498l-283 -498h-110l-283 498v-498zM795 1434v-144h-295v-653h-144v653h-295v144h734z" />
    <glyph glyph-name="Ohm" unicode="&#x2126;" horiz-adv-x="1515" 
d="M860 0v164q420 227 420 581q0 229 -148 379t-374 150t-374 -150t-148 -379q0 -354 419 -581v-164h-585v164h266q-295 225 -295 581q0 313 204 513t513 200t513 -200t204 -513q0 -354 -297 -581h268v-164h-586z" />
    <glyph glyph-name="estimated" unicode="&#x212e;" horiz-adv-x="1572" 
d="M1247 659v291q0 92 -90 156q-143 102 -354 102t-361 -94q-106 -72 -106 -151v-304h911zM1511 602h-1175v-287q0 -115 106 -188q145 -92 353 -92q137 0 260 50t207 140h100q-98 -117 -249 -185t-322 -67q-299 -1 -509 189t-210 458t210 458t509 190t509 -190t211 -457v-19
z" />
    <glyph glyph-name="arrowleft" unicode="&#x2190;" horiz-adv-x="1921" 
d="M1716 809v-172h-1155l424 -373l-111 -121l-669 580l669 580l111 -121l-424 -373h1155z" />
    <glyph glyph-name="arrowup" unicode="&#x2191;" horiz-adv-x="1568" 
d="M870 0h-172v1114l-372 -424l-121 111l579 669l580 -669l-121 -111l-373 424v-1114z" />
    <glyph glyph-name="arrowright" unicode="&#x2192;" horiz-adv-x="1921" 
d="M205 637v172h1155l-424 373l111 121l669 -580l-669 -580l-111 121l424 373h-1155z" />
    <glyph glyph-name="arrowdown" unicode="&#x2193;" horiz-adv-x="1568" 
d="M698 1427h172v-1114l373 424l121 -110l-580 -670l-579 670l121 110l372 -424v1114z" />
    <glyph glyph-name="arrowupleft" unicode="&#x2196;" horiz-adv-x="1540" 
d="M205 1260l882 -64l-6 -164l-563 37l817 -817l-123 -123l-817 817l37 -563l-164 -6z" />
    <glyph glyph-name="arrowupright" unicode="&#x2197;" horiz-adv-x="1540" 
d="M453 1196l882 64l-63 -883l-164 6l37 563l-817 -817l-123 123l817 817l-563 -37z" />
    <glyph glyph-name="arrowdownright" unicode="&#x2198;" horiz-adv-x="1540" 
d="M1335 152l-882 63l6 164l563 -37l-817 817l123 123l817 -817l-37 563l164 6z" />
    <glyph glyph-name="arrowdownleft" unicode="&#x2199;" horiz-adv-x="1540" 
d="M1087 215l-882 -63l63 882l164 -6l-37 -563l817 817l123 -123l-817 -817l563 37z" />
    <glyph glyph-name="partialdiff" unicode="&#x2202;" 
d="M685 150q124 0 212 122t109 308q-39 63 -124 119t-173 57q-123 0 -208 -93t-85 -223t72 -210q73 -80 197 -80zM658 1495q232 0 392 -189q158 -190 158 -540t-143 -570t-397 -221q-211 -1 -327 135t-116 340q1 204 139 342t327 138t327 -129v18q0 223 -110 363t-260 139
q-150 0 -306 -104l-84 155q168 123 400 123z" />
    <glyph glyph-name="increment" unicode="&#x2206;" 
d="M293 133h852l-426 1059zM1401 0h-1368l633 1526h102z" />
    <glyph glyph-name="product" unicode="&#x220f;" 
d="M1374 1286h-227v-1468h-184v1468h-494v-1468h-184v1468h-228v174h1317v-174z" />
    <glyph glyph-name="summation" unicode="&#x2211;" 
d="M1214 -205h-997v123l504 717l-479 682v117h944v-181h-664l428 -618l-456 -660h720v-180z" />
    <glyph glyph-name="minus" unicode="&#x2212;" 
d="M248 559v184h938v-184h-938z" />
    <glyph glyph-name="radical" unicode="&#x221a;" 
d="M911 -115h-147l-406 981l-155 -67l-58 131l312 131l360 -899l322 1722l149 -18z" />
    <glyph glyph-name="infinity" unicode="&#x221e;" horiz-adv-x="1515" 
d="M1126 418q74 0 130 55t57 139t-55 140t-131 57q-75 0 -136 -50t-139 -147q80 -96 140 -145t134 -49zM389 418q74 0 134 49t141 145q-78 96 -140 146t-136 51q-75 0 -130 -56q-55 -57 -55 -141t56 -139t130 -55zM374 279q-124 0 -226 96q-101 96 -101 238q0 143 101 239
t243 96q182 0 367 -219q184 219 366 219q140 0 242 -96t102 -238t-101 -239q-101 -96 -243 -96q-106 -1 -192 57t-174 160q-88 -102 -174 -160t-210 -57z" />
    <glyph glyph-name="integral" unicode="&#x222b;" 
d="M625 -143v1644q0 123 61 189q62 66 144 66t174 -21v-172q-70 12 -115 12q-80 0 -80 -92v-1645q0 -122 -61 -188q-62 -66 -144 -66t-174 21v172q70 -12 115 -13q80 1 80 93z" />
    <glyph glyph-name="approxequal" unicode="&#x2248;" 
d="M944 205q-104 0 -250 81t-205 81q-98 0 -227 -121l-96 151q166 162 323 162q101 0 247 -80t208 -80q98 0 225 119l99 -141q-176 -172 -324 -172zM944 641q-104 0 -250 81t-205 81q-98 0 -227 -121l-96 152q166 162 323 161q101 0 247 -80t208 -79q98 -1 225 118l99 -141
q-176 -172 -324 -172z" />
    <glyph glyph-name="notequal" unicode="&#x2260;" 
d="M219 283v184h342l135 256h-477v184h576l120 226l138 -72l-82 -154h243v-184h-342l-137 -256h479v-184h-577l-121 -226l-137 68l84 158h-244z" />
    <glyph glyph-name="lessequal" unicode="&#x2264;" 
d="M248 193v180h938v-180h-938zM1171 647l-49 -170l-889 283v143l889 283l49 -170l-612 -185z" />
    <glyph glyph-name="greaterequal" unicode="&#x2265;" 
d="M1176 373v-180h-938v180h938zM301 477l-49 170l612 184l-612 185l49 170l889 -283v-143z" />
    <glyph glyph-name="lozenge" unicode="&#x25ca;" 
d="M1038 678l-321 682l-322 -682l322 -680zM1212 678l-424 -862h-143l-424 862l424 864h143z" />
    <glyph glyph-name="asuperior" unicode="&#xf6e9;" horiz-adv-x="772" 
d="M518 846v20l-190 -20q-39 -4 -61 -22t-21 -42q0 -68 108 -67q66 0 115 39t49 92zM518 1006v24q0 64 -122 64t-152 -95l-127 64q59 160 272 160q270 0 270 -234v-395h-141v63q-72 -75 -178 -75t-172 57t-66 142t58 132t145 54l184 14q29 5 29 25z" />
    <glyph glyph-name="bsuperior" unicode="&#xf6ea;" horiz-adv-x="841" 
d="M437 713q85 0 135 52t51 136q-1 84 -51 136q-50 53 -135 53t-133 -52t-48 -137q0 -86 48 -137t133 -51zM262 1454v-301q74 70 202 70t217 -88q89 -87 89 -233t-91 -234t-219 -88t-198 69v-55h-139v860h139z" />
    <glyph glyph-name="dsuperior" unicode="&#xf6eb;" horiz-adv-x="839" 
d="M402 713q85 0 135 52q49 52 49 138t-49 136q-49 51 -135 51t-134 -52q-49 -52 -49 -137q0 -84 49 -136t134 -52zM578 594v63q-74 -77 -202 -77t-216 88t-88 233t88 233t215 89q127 0 203 -64v295h139v-860h-139z" />
    <glyph glyph-name="esuperior" unicode="&#xf6ec;" horiz-adv-x="763" 
d="M389 1090q-131 0 -164 -119h322q-27 119 -158 119zM72 899q0 137 88 230t229 93t227 -89q86 -90 86 -230v-51h-487q8 -66 58 -102t120 -37q121 0 201 90l74 -107q-114 -116 -264 -116t-241 91t-91 228z" />
    <glyph glyph-name="lsuperior" unicode="&#xf6ee;" horiz-adv-x="387" 
d="M264 594h-141v860h141v-860z" />
    <glyph glyph-name="msuperior" unicode="&#xf6ef;" horiz-adv-x="1241" 
d="M975 594v362q0 133 -127 134q-76 0 -116 -44t-40 -155v-297h-143v362q0 133 -127 134q-80 0 -120 -48t-40 -161v-287h-139v614h139v-57q72 72 192 72t187 -97q90 96 219 97q258 0 258 -279v-350h-143z" />
    <glyph glyph-name="osuperior" unicode="&#xf6f0;" horiz-adv-x="817" 
d="M219 901q-1 -80 53 -134t137 -54t136 54t53 134t-53 134q-53 55 -136 55t-137 -54t-53 -135zM72 901q0 133 98 227t239 95q140 -1 238 -95t98 -227t-98 -227t-238 -94t-239 94q-98 94 -98 227z" />
    <glyph glyph-name="rsuperior" unicode="&#xf6f1;" horiz-adv-x="565" 
d="M424 1075q-160 0 -160 -198v-283h-141v614h137v-63q63 80 164 80q39 -1 80 -11v-153q-31 14 -80 14z" />
    <glyph glyph-name="ssuperior" unicode="&#xf6f2;" horiz-adv-x="692" 
d="M356 713q51 0 82 16t31 41q0 56 -179 83q-67 9 -123 55t-56 126t67 134q68 54 182 55q164 0 250 -129l-104 -80q-57 76 -146 76q-48 0 -78 -18t-30 -43q0 -26 37 -41t89 -24q52 -10 104 -26t89 -58t37 -118t-70 -129t-172 -53t-176 41t-108 102l111 80q59 -90 163 -90z
" />
    <glyph glyph-name="tsuperior" unicode="&#xf6f3;" horiz-adv-x="555" 
d="M170 774v307h-119v127h119v162h139v-162h168v-127h-168v-313q0 -49 51 -49t123 14v-125q-86 -20 -145 -20q-168 0 -168 186z" />
    <glyph glyph-name="apple" unicode="&#xf8ff;" horiz-adv-x="1812" 
d="M1455 518q40 0 40 -40t-40 -40t-40 40t40 40zM1196 547v-96q12 8 40 19t30 24q0 30 -70 53zM705 760v-66q10 6 27 12t28 9q10 4 10 12q1 23 -65 33zM1485 770v-205h-60v205h60zM1655 754q0 59 -44 82q-89 46 -288 -2v-342q0 -39 -63 -65t-64 -50q0 -33 41 -33t122 22
t145 22t151 -32v398zM1023 748q46 0 77 30t30 76q0 45 -30 75q-31 29 -77 29t-76 -30q-29 -30 -29 -74q0 -45 29 -76q30 -30 76 -30zM1024 1018q72 0 118 -46t46 -118t-46 -119t-118 -47t-118 47t-46 119t46 118t118 46zM831 729q1 -37 -65 -59t-66 -47q0 -33 46 -33t144 17
t150 18q133 0 226 -52v404q0 92 -99 115q-51 12 -130 12t-206 -25v-350zM547 860h-62v139l-133 195h70l94 -131l92 131h70l-131 -195v-139zM596 823q112 0 176 -28v393q0 57 -46 85t-108 27q-133 0 -360 -92v-471q226 86 338 86zM1323 991v-98q98 25 158 25q229 0 229 -162
v-492q-106 66 -229 66q-39 0 -119 -20t-123 -21q-98 0 -98 94v176q-47 10 -97 10t-148 -18q-96 -19 -146 -19t-76 26t-27 69v139h-29q-127 0 -360 -90v-676h-80v1323q-35 23 -35 62t22 59q21 20 53 20t54 -22t23 -60q0 -40 -37 -61v-49q211 86 360 86q86 0 150 -44t63 -126
v-51q113 25 209 24q283 0 283 -170z" />
    <glyph glyph-name="ff" unicode="&#xfb00;" horiz-adv-x="1390" 
d="M395 870v-870h-176v870h-188v154h188v57q0 371 330 371q66 0 158 -14v-160q-72 10 -150 10t-120 -45t-42 -162v-57h477v57q0 371 330 371q63 0 158 -14v-160q-72 10 -150 10t-119 -45q-42 -45 -42 -162v-57h297v-154h-297v-870h-177v870h-477z" />
    <glyph glyph-name="fi" unicode="&#xfb01;" horiz-adv-x="1247" 
d="M395 1081v-57h678v-1024h-176v870h-502v-870h-176v870h-188v154h188v57q0 371 330 371q66 0 158 -14v-160q-72 10 -150 10t-120 -45t-42 -162zM846 1321q0 59 40 99t99 40t99 -40t40 -99t-40 -99t-99 -40t-99 40t-40 99z" />
    <glyph glyph-name="fl" unicode="&#xfb02;" horiz-adv-x="1189" 
d="M1047 0h-181v1434h181v-1434zM31 870v154h188v57q0 371 330 371q66 0 158 -14v-160q-72 10 -150 10t-120 -45t-42 -162v-57h297v-154h-297v-870h-176v870h-188z" />
    <glyph glyph-name="ffi" unicode="&#xfb03;" horiz-adv-x="1900" 
d="M31 870v154h188v57q0 371 330 371q66 0 158 -14v-160q-72 10 -150 10t-120 -45t-42 -162v-57h477v57q0 371 330 371q63 0 158 -14v-160q-72 10 -150 10t-119 -45q-42 -45 -42 -162v-57h677v-1024h-176v870h-501v-870h-177v870h-477v-870h-176v870h-188zM1499 1321
q0 59 41 99t98 40q56 0 98 -40t42 -99t-41 -99t-99 -40t-98 40q-41 40 -41 99z" />
    <glyph glyph-name="ffl" unicode="&#xfb04;" horiz-adv-x="1828" 
d="M1686 0h-181v1434h181v-1434zM395 870v-870h-176v870h-188v154h188v57q0 371 330 371q66 0 158 -14v-160q-72 10 -150 10t-120 -45t-42 -162v-57h477v57q0 371 330 371q63 0 158 -14v-160q-72 10 -150 10t-119 -45q-42 -45 -42 -162v-57h297v-154h-297v-870h-177v870
h-477z" />
    <glyph glyph-name="one.denominator" horiz-adv-x="671" 
d="M514 860v-860h-147v641l-181 -172l-104 104l299 287h133z" />
    <glyph glyph-name="two.denominator" horiz-adv-x="851" 
d="M428 860q112 0 188 -73q78 -73 78 -187t-90 -209l-233 -246h313v-145h-543v121l359 373q45 49 45 103t-37 86t-88 32q-126 0 -187 -135l-114 98q43 80 120 131t189 51z" />
    <glyph glyph-name="three.denominator" horiz-adv-x="800" 
d="M342 506h49q57 0 92 26t35 76q0 49 -32 78t-80 29q-117 0 -162 -131l-119 98q31 76 103 127t180 51t184 -70t76 -172q0 -104 -84 -184q84 -68 84 -184t-73 -182q-73 -68 -182 -68t-185 51q-75 51 -109 137l131 99q43 -141 151 -142q51 0 84 29t33 79t-35 79t-92 28h-49
v146z" />
    <glyph glyph-name="four.denominator" horiz-adv-x="946" 
d="M541 311v291l-258 -291h258zM688 311h176v-145h-176v-166h-147v166h-471v125l497 569h121v-549z" />
    <glyph glyph-name="five.denominator" horiz-adv-x="827" 
d="M545 293q-1 147 -177 147q-90 0 -194 -49v469h520v-145h-372v-133q55 6 71 6q135 0 218 -83t83 -217t-92 -211t-230 -77t-253 94l76 129q96 -78 177 -78t127 39t46 109z" />
    <glyph glyph-name="six.denominator" horiz-adv-x="823" 
d="M270 288q0 -66 43 -104q43 -39 109 -39t106 40t41 106q0 65 -40 103q-39 38 -107 38t-110 -39t-42 -105zM454 715q-68 0 -113 -48q-44 -48 -54 -120q68 31 133 31q131 0 214 -79t83 -207t-84 -210q-83 -82 -225 -82t-230 121q-59 82 -59 256q0 235 91 359t249 124
q117 0 217 -78l-80 -118q-74 51 -142 51z" />
    <glyph glyph-name="seven.denominator" horiz-adv-x="763" 
d="M682 860v-123l-391 -737h-168l381 715h-422v145h600z" />
    <glyph glyph-name="eight.denominator" horiz-adv-x="786" 
d="M393 358q-53 0 -90 -28t-37 -78q0 -49 35 -78t91 -29t91 29t35 78q0 50 -36 78t-89 28zM393 504q53 0 89 28t36 77q0 48 -35 77t-91 29t-91 -29t-35 -77q0 -49 37 -77t90 -28zM393 0q-123 0 -199 68t-75 178q0 112 86 186q-86 70 -86 182t77 179q78 67 198 67t197 -68
t77 -179q0 -112 -86 -181q86 -74 86 -186t-76 -178q-76 -68 -199 -68z" />
    <glyph glyph-name="nine.denominator" horiz-adv-x="829" 
d="M254 569q0 -65 41 -103t109 -38t110 39t41 105q0 66 -43 104q-42 39 -108 39t-108 -40t-42 -106zM106 567q0 127 86 210t226 83t227 -121q59 -84 60 -256q1 -251 -87 -367t-247 -116q-119 0 -230 61l62 134q92 -49 168 -49t120 46q44 48 48 121q-63 -31 -133 -30
q-133 0 -217 78q-83 79 -83 206z" />
    <glyph glyph-name="one.numerator" horiz-adv-x="671" 
d="M514 1434v-861h-147v641l-181 -172l-104 105l299 287h133z" />
    <glyph glyph-name="two.numerator" horiz-adv-x="851" 
d="M694 1174q0 -114 -90 -209l-233 -246h313v-146h-543v121l359 373q45 49 45 103t-37 86t-88 32q-126 0 -187 -135l-114 98q43 80 120 131q77 52 189 52t188 -73q78 -73 78 -187z" />
    <glyph glyph-name="three.numerator" horiz-adv-x="800" 
d="M342 1079h49q57 0 92 27t35 76t-32 78t-80 28q-117 0 -162 -131l-119 98q31 76 103 127q72 52 180 52t184 -70t76 -173t-84 -183q84 -68 84 -184t-73 -184t-182 -67q-109 -1 -185 51t-109 138l131 98q43 -141 151 -141q51 0 84 29q33 28 33 78t-35 79t-92 29h-49v145z
" />
    <glyph glyph-name="five.numerator" horiz-adv-x="827" 
d="M545 866q-1 148 -177 148q-90 0 -194 -49v469h520v-146h-372v-133q55 6 71 6q135 0 218 -83t83 -217t-92 -211t-230 -77t-253 95l76 129q96 -78 177 -78t127 39q46 38 46 108z" />
    <glyph glyph-name="six.numerator" horiz-adv-x="823" 
d="M422 1006q-68 0 -110 -40t-42 -104q0 -66 43 -104t109 -39q66 0 106 40q40 39 41 105q0 66 -40 104q-39 38 -107 38zM454 1288q-68 0 -113 -48q-44 -48 -54 -120q68 31 133 31q131 0 214 -79t83 -207t-84 -210q-83 -82 -225 -82t-230 121q-59 82 -59 256q0 236 91 360
t249 124q117 0 217 -78l-80 -119q-74 51 -142 51z" />
    <glyph glyph-name="seven.numerator" horiz-adv-x="763" 
d="M682 1434v-123l-391 -738h-168l381 715h-422v146h600z" />
    <glyph glyph-name="csuperior" horiz-adv-x="710" 
d="M407 580q-144 0 -240 89q-95 89 -95 232t95 233t239 89q144 0 243 -101l-88 -106q-57 74 -147 74t-143 -50q-52 -50 -52 -139q0 -88 52 -138q52 -51 139 -51t157 74l82 -108q-98 -98 -242 -98z" />
    <glyph glyph-name="fsuperior" horiz-adv-x="538" 
d="M51 1081v127h113v29q0 227 211 227q59 0 112 -10v-129q-93 10 -119 10q-26 1 -46 -21t-21 -77v-29h176v-127h-176v-487h-137v487h-113z" />
    <glyph glyph-name="gsuperior" horiz-adv-x="851" 
d="M598 903q0 85 -48 137t-133 52t-136 -54t-51 -137q0 -84 50 -136q52 -52 136 -52t133 52t49 138zM594 645v12q-68 -77 -201 -77t-222 88t-89 233t89 235t218 89q129 0 203 -70v53h137v-563q0 -129 -70 -221t-237 -92q-207 0 -305 153l106 80q63 -106 205 -106
q90 0 128 55t38 131z" />
    <glyph glyph-name="ksuperior" horiz-adv-x="751" 
d="M262 594h-139v860h139v-498l258 252h191l-279 -276l273 -338h-179l-190 248l-74 -64v-184z" />
    <glyph glyph-name="psuperior" horiz-adv-x="841" 
d="M437 1090q-85 0 -133 -52t-48 -137q0 -86 48 -137t133 -51t135 52t51 136q-1 85 -51 137t-135 52zM262 348h-139v860h139v-51q76 66 203 66t216 -88q89 -87 89 -233t-89 -234t-213 -88t-206 69v-301z" />
    <glyph glyph-name="qsuperior" horiz-adv-x="839" 
d="M586 901q0 85 -50 137t-134 52q-85 0 -134 -52t-49 -137q0 -84 49 -136t134 -52t135 51q49 51 49 137zM717 348h-139v307q-72 -75 -201 -75t-217 88t-88 233t88 233t218 89q130 0 200 -66v51h139v-860z" />
    <glyph glyph-name="usuperior" horiz-adv-x="802" 
d="M264 1208v-358q0 -137 121 -137q78 0 118 53t40 143v299h137v-614h-139v65q-76 -79 -190 -79t-171 74t-57 196v358h141z" />
    <glyph glyph-name="zsuperior" horiz-adv-x="653" 
d="M582 725v-131h-510v115l311 368h-301v131h487v-114l-311 -369h324z" />
    <glyph glyph-name="braceleft.case" horiz-adv-x="774" 
d="M498 506v-369q0 -80 48 -123t122 -43h65v-143h-55q-334 0 -334 319v338q0 84 -59 132t-162 55v151q101 7 161 57t60 134v327q0 319 334 320h55v-143h-65q-74 0 -122 -43t-48 -123v-342q0 -188 -164 -252v-4q88 -34 126 -94t38 -154z" />
    <glyph glyph-name="braceright.case" horiz-adv-x="774" 
d="M276 137v369q0 94 38 153t126 95v4q-164 63 -164 252v342q0 80 -48 123t-122 43h-65v143h55q334 0 334 -320v-327q0 -84 59 -134t162 -57v-151q-101 -6 -161 -54t-60 -133v-338q0 -319 -334 -319h-55v143h65q74 0 122 43t48 123z" />
    <glyph glyph-name="bracketleft.case" horiz-adv-x="696" 
d="M225 -172v1833h410v-143h-256v-1547h256v-143h-410z" />
    <glyph glyph-name="bracketright.case" horiz-adv-x="696" 
d="M471 1661v-1833h-410v143h256v1547h-256v143h410z" />
    <glyph glyph-name="parenleft.denominator" horiz-adv-x="497" 
d="M82 380q0 337 244 574l96 -84q-203 -214 -203 -488t203 -493l-96 -86q-244 240 -244 577z" />
    <glyph glyph-name="parenleft.numerator" horiz-adv-x="497" 
d="M82 954q0 336 244 574l96 -84q-203 -214 -203 -488t203 -493l-96 -86q-244 241 -244 577z" />
    <glyph glyph-name="parenright.numerator" horiz-adv-x="497" 
d="M416 953q0 -335 -246 -576l-94 86q201 219 201 491t-201 490l94 84q246 -240 246 -575z" />
    <glyph glyph-name="endash.case" horiz-adv-x="1900" 
d="M143 643v184h1614v-184h-1614z" />
    <glyph glyph-name="guillemotleft.case" horiz-adv-x="1153" 
d="M989 289l-117 -105l-378 430l378 430l117 -106l-291 -324zM578 289l-117 -105l-379 430l379 430l117 -106l-293 -324z" />
    <glyph glyph-name="guillemotright.case" horiz-adv-x="1155" 
d="M694 184l-116 105l292 325l-292 324l116 106l379 -430zM281 184l-117 105l293 325l-293 324l117 106l378 -430z" />
    <glyph glyph-name="guilsinglleft.case" horiz-adv-x="761" 
d="M578 289l-117 -105l-379 430l379 430l117 -106l-293 -324z" />
    <glyph glyph-name="guilsinglright.case" horiz-adv-x="761" 
d="M301 184l-117 105l293 325l-293 324l117 106l379 -430z" />
    <glyph glyph-name="approxequal.case" 
d="M944 307q-104 0 -250 81t-205 81q-98 0 -227 -121l-96 152q166 162 323 162q101 0 247 -80t208 -80q98 0 225 119l99 -142q-176 -172 -324 -172zM944 743q-104 0 -250 81t-205 81q-98 0 -227 -121l-96 152q166 162 323 162q101 0 247 -80t208 -80q98 0 225 119l99 -142
q-176 -172 -324 -172z" />
    <glyph glyph-name="divide.case" 
d="M537 369q0 69 46 115q45 46 113 46t115 -47t47 -115t-47 -113q-47 -46 -115 -46t-114 46t-45 114zM156 653v185h1122v-185h-1122zM537 1120q0 68 46 115q45 47 113 47t115 -47t47 -115t-47 -114t-115 -45q-68 -1 -114 45t-45 114z" />
    <glyph glyph-name="equal.case" 
d="M1214 569v-184h-995v184h995zM1214 1010v-185h-995v185h995z" />
    <glyph glyph-name="equal.denominator" horiz-adv-x="806" 
d="M713 301v-145h-619v145h619zM713 551v-145h-619v145h619z" />
    <glyph glyph-name="logicalnot.case" 
d="M248 725v184h938v-520h-187v336h-751z" />
    <glyph glyph-name="minus.case" 
d="M248 662v184h938v-184h-938z" />
    <glyph glyph-name="minus.denominator" horiz-adv-x="770" 
d="M82 315v146h586v-146h-586z" />
    <glyph glyph-name="minus.numerator" horiz-adv-x="770" 
d="M82 889v145h586v-145h-586z" />
    <glyph glyph-name="multiply.case" 
d="M231 1114l123 123l361 -360l362 362l123 -125l-360 -362l360 -361l-123 -125l-362 363l-361 -361l-123 123l361 361z" />
    <glyph glyph-name="notequal.case" 
d="M219 385v184h342l135 256h-477v185h576l120 225l138 -72l-82 -153h243v-185h-342l-137 -256h479v-184h-577l-121 -225l-137 67l84 158h-244z" />
    <glyph glyph-name="plus.case" 
d="M197 662v184h428v428h184v-428h428v-184h-428v-429h-184v429h-428z" />
    <glyph glyph-name="plus.denominator" horiz-adv-x="841" 
d="M94 311v146h252v243h150v-243h252v-146h-252v-243h-150v243h-252z" />
    <glyph glyph-name="plus.numerator" horiz-adv-x="841" 
d="M94 885v145h252v244h150v-244h252v-145h-252v-244h-150v244h-252z" />
    <glyph glyph-name="arrowdown.case" horiz-adv-x="1568" 
d="M698 1325h172v-1114l373 424l121 -111l-580 -669l-579 669l121 111l372 -424v1114z" />
    <glyph glyph-name="arrowdownright.case" horiz-adv-x="1540" 
d="M1335 49l-882 64l6 163l563 -36l-817 817l123 123l817 -818l-37 564l164 6z" />
    <glyph glyph-name="arrowleft.case" horiz-adv-x="1921" 
d="M1716 911v-172h-1155l424 -372l-111 -121l-669 579l669 580l111 -121l-424 -373h1155z" />
    <glyph glyph-name="arrowright.case" horiz-adv-x="1921" 
d="M205 739v172h1155l-424 373l111 121l669 -580l-669 -579l-111 121l424 372h-1155z" />
    <glyph glyph-name="arrowupleft.case" horiz-adv-x="1540" 
d="M205 1362l882 -64l-6 -163l-563 36l817 -817l-123 -123l-817 818l37 -564l-164 -6z" />
    <glyph glyph-name="arrowupright.case" horiz-adv-x="1540" 
d="M453 1298l882 64l-63 -883l-164 6l37 564l-817 -818l-123 123l817 817l-563 -36z" />
    <glyph glyph-name="at.case" horiz-adv-x="1943" 
d="M811 551q0 -45 36 -78q35 -33 119 -33t148 62t64 143v49l-260 -28q-51 -6 -79 -38t-28 -77zM985 -121q-356 0 -589 240q-232 240 -232 603t239 601q240 238 596 238q357 0 579 -201t222 -531q0 -252 -92 -394t-267 -142t-222 141q-96 -145 -281 -145q-135 0 -216 75
q-81 76 -81 192t77 184t183 77l242 19q35 2 35 36v29q0 39 -44 74t-120 35t-135 -38t-72 -112l-145 70q59 231 344 231q170 0 252 -86t83 -235v-269q0 -63 28 -97t77 -34q182 0 182 385q0 254 -173 413t-457 159q-284 -1 -473 -191t-189 -484t182 -486t454 -193
q272 0 480 94l33 -160q-236 -98 -500 -98z" />
    <glyph glyph-name="bar.case" horiz-adv-x="563" 
d="M205 -172v1833h153v-1833h-153z" />
    <glyph glyph-name="brokenbar.case" horiz-adv-x="563" 
d="M205 705h153v-877h-153v877zM205 887v774h153v-774h-153z" />
    <glyph glyph-name="commaturn" horiz-adv-x="350" 
d="M178 1090q-60 0 -103 44q-42 44 -42 87t22 84l166 297l94 -54l-100 -176q47 -14 76 -54t29 -90t-42 -94q-40 -44 -100 -44z" />
    <glyph glyph-name="equalinferior" horiz-adv-x="806" 
d="M713 168v-145h-619v145h619zM713 418v-146h-619v146h619z" />
    <glyph glyph-name="minusinferior" horiz-adv-x="770" 
d="M82 182v146h586v-146h-586z" />
    <glyph glyph-name="plusinferior" horiz-adv-x="841" 
d="M94 178v146h252v243h150v-243h252v-146h-252v-244h-150v244h-252z" />
    <glyph glyph-name="vsuperior" horiz-adv-x="755" 
d="M561 1208h154l-283 -614h-106l-285 614h154l184 -413z" />
    <glyph glyph-name="arrowdownleft.case" horiz-adv-x="1540" 
d="M1087 113l-882 -64l63 883l164 -6l-37 -564l817 818l123 -123l-817 -817l563 36z" />
    <glyph glyph-name="arrowup.case" horiz-adv-x="1568" 
d="M870 102h-172v1115l-372 -424l-121 110l579 670l580 -670l-121 -110l-373 424v-1115z" />
    <glyph glyph-name="eight.numerator" horiz-adv-x="786" 
d="M393 932q-53 0 -90 -29t-37 -78t35 -77t91 -29q56 0 91 29q35 30 35 78t-36 77t-89 29zM393 1077q53 0 89 29t36 77t-35 77q-35 28 -91 28t-91 -28t-35 -77q0 -48 37 -77t90 -29zM393 573q-123 -1 -199 67t-75 180q0 112 86 186q-86 70 -86 182t77 178q78 68 198 68
t197 -68t77 -180t-86 -180q86 -74 86 -186t-76 -180t-199 -67z" />
    <glyph glyph-name="emdash.case" horiz-adv-x="2822" 
d="M143 643v184h2536v-184h-2536z" />
    <glyph glyph-name="equal.numerator" horiz-adv-x="806" 
d="M713 874v-145h-619v145h619zM713 1124v-145h-619v145h619z" />
    <glyph glyph-name="four.numerator" horiz-adv-x="946" 
d="M541 885v291l-258 -291h258zM688 885h176v-146h-176v-166h-147v166h-471v125l497 570h121v-549z" />
    <glyph glyph-name="hyphen.case" horiz-adv-x="1286" 
d="M164 643v184h958v-184h-958z" />
    <glyph glyph-name="nine.numerator" horiz-adv-x="829" 
d="M404 1001q68 -1 110 39t41 106q0 66 -43 104q-42 38 -108 38t-108 -40t-42 -106t41 -103q41 -38 109 -38zM371 719q76 0 120 47t48 121q-63 -31 -133 -31q-133 0 -217 79q-83 79 -83 206t86 210t226 83t227 -121q59 -84 60 -256q1 -250 -87 -367t-247 -117
q-119 1 -230 62l62 133q92 -49 168 -49z" />
    <glyph glyph-name="parenleft.case" horiz-adv-x="659" 
d="M82 744q0 280 101 533t288 443l117 -106q-168 -188 -251 -396t-83 -474t83 -474q83 -209 251 -397l-117 -106q-186 190 -288 443q-101 254 -101 534z" />
    <glyph glyph-name="parenright.case" horiz-adv-x="659" 
d="M406 744q0 266 -83 474t-251 396l116 106q186 -190 288 -443t102 -534t-102 -533t-288 -443l-116 106q168 188 251 397t83 474z" />
    <glyph glyph-name="parenright.denominator" horiz-adv-x="497" 
d="M416 380q0 -334 -246 -577l-94 86q201 219 201 491t-201 490l94 84q246 -240 246 -574z" />
    <glyph glyph-name="plusminus.case" 
d="M231 338v180h969v-180h-969zM231 887v180h398v285h176v-285h395v-180h-395v-285h-176v285h-398z" />
    <glyph glyph-name="zero.denominator" horiz-adv-x="1036" 
d="M518 145q115 0 190 78t74 205q0 127 -74 206q-75 79 -190 79q-116 0 -190 -79t-74 -206t74 -205t190 -78zM518 860q174 0 293 -122t119 -309t-119 -308t-293 -121t-293 121t-119 308t119 309t293 122z" />
    <glyph glyph-name="zero.numerator" horiz-adv-x="1036" 
d="M518 719q115 0 190 78q74 79 74 205t-74 205q-75 79 -190 79q-116 0 -190 -79t-74 -206t74 -205t190 -77zM518 1434q174 0 293 -122t119 -310t-119 -308q-119 -121 -293 -121t-293 121t-119 308q0 188 119 310t293 122z" />
    </font>
</defs>
</svg>
